<svg xmlns="http://www.w3.org/2000/svg" width="117" height="117" viewBox="0 0 117 117">
  <g id="Group_5282" data-name="Group 5282" transform="translate(-1307 -1641)">
    <rect id="Rectangle_4095" data-name="Rectangle 4095" width="117" height="117" rx="50" transform="translate(1307 1641)" fill="#437fc7"/>
    <g id="User_Profile" transform="translate(1334 1669.08)">
      <path id="Path_14496" data-name="Path 14496" d="M242,62.4h32.906V55.087H242ZM242,0V14.869h29.006V51.431h3.9V0Zm21.938,11.212H252.969V7.556h10.969Z" transform="translate(-212.506)" fill="#fff"/>
      <path id="Path_14497" data-name="Path 14497" d="M21.348,167.456l-2.111-.318-.955-1.91-.956,1.91-2.111.318,1.521,1.5-.35,2.107,1.9-.985,1.9.985-.35-2.107Zm0,0-2.111-.318-.955-1.91-.956,1.91-2.111.318,1.521,1.5-.35,2.107,1.9-.985,1.9.985-.35-2.107Zm0,0-2.111-.318-.955-1.91-.956,1.91-2.111.318,1.521,1.5-.35,2.107,1.9-.985,1.9.985-.35-2.107Zm0,0-2.111-.318-.955-1.91-.956,1.91-2.111.318,1.521,1.5-.35,2.107,1.9-.985,1.9.985-.35-2.107ZM0,152v40.219l9.75-7.312H54.844V152Zm24.982,25.677-6.7-3.48-6.7,3.48,1.237-7.449-5.378-5.3,7.466-1.124,3.376-6.753,3.376,6.753,7.466,1.124-5.378,5.3Zm22.549-.083H32.906v-3.656H47.531Zm0-7.312H32.906v-3.656H47.531Zm0-7.312H32.906v-3.656H47.531Zm-28.294,4.169-.955-1.91-.956,1.91-2.111.318,1.521,1.5-.35,2.107,1.9-.985,1.9.985-.35-2.107,1.521-1.5Zm2.111.318-2.111-.318-.955-1.91-.956,1.91-2.111.318,1.521,1.5-.35,2.107,1.9-.985,1.9.985-.35-2.107Zm0,0-2.111-.318-.955-1.91-.956,1.91-2.111.318,1.521,1.5-.35,2.107,1.9-.985,1.9.985-.35-2.107Z" transform="translate(0 -133.475)" fill="#fff"/>
    </g>
  </g>
</svg>
