<svg xmlns="http://www.w3.org/2000/svg" width="117" height="117" viewBox="0 0 117 117">
  <g id="Group_5279" data-name="Group 5279" transform="translate(-227 -1640)">
    <rect id="Rectangle_4095" data-name="Rectangle 4095" width="117" height="117" rx="50" transform="translate(227 1640)" fill="#437fc7"/>
    <g id="User_Profile" transform="translate(252 1666.52)">
      <g id="Line" transform="translate(0 0)">
        <path id="Path_14479" data-name="Path 14479" d="M38.915,28.092,32.6,24.66,25,56.39H42.16V33.568a6.241,6.241,0,0,0-3.246-5.476Z" transform="translate(9.32 7.57)" fill="#fff"/>
        <path id="Path_14480" data-name="Path 14480" d="M23.6,11.8a7.8,7.8,0,1,0-7.8,7.8,7.706,7.706,0,0,0,4.571-1.56,14.04,14.04,0,0,1,2.824-3.9A7.332,7.332,0,0,0,23.6,11.8Z" transform="translate(-0.2 -4)" fill="#fff"/>
        <circle id="Ellipse_1917" data-name="Ellipse 1917" cx="11" cy="11" r="11" transform="translate(22.04 9.48)" fill="#fff"/>
        <path id="Path_14481" data-name="Path 14481" d="M45.6,11.8a7.8,7.8,0,1,0-15.6,0,7.332,7.332,0,0,0,.406,2.4,14.04,14.04,0,0,1,2.824,3.838A7.706,7.706,0,0,0,37.8,19.6,7.8,7.8,0,0,0,45.6,11.8Z" transform="translate(12.12 -4)" fill="#fff"/>
        <path id="Path_14482" data-name="Path 14482" d="M21.72,18.26a13,13,0,0,1,.172-2.075A11.076,11.076,0,0,1,18.6,16.7a10.92,10.92,0,0,1-6.24-1.95l-5.3,1.95A6.24,6.24,0,0,0,3,22.581v22.2H13.92V39.117A9.36,9.36,0,0,1,18.8,30.912l6.349-3.479A14.04,14.04,0,0,1,21.72,18.26Z" transform="translate(-3 2.02)" fill="#fff"/>
        <path id="Path_14483" data-name="Path 14483" d="M48.9,16.7l-5.3-1.95a10.92,10.92,0,0,1-6.24,1.95,11.076,11.076,0,0,1-3.292-.515,12.994,12.994,0,0,1,.172,2.075A14.04,14.04,0,0,1,30.8,27.433l6.349,3.479a9.36,9.36,0,0,1,4.883,8.206V44.78h10.92v-22.2A6.24,6.24,0,0,0,48.9,16.7Z" transform="translate(12.568 2.02)" fill="#fff"/>
        <path id="Path_14484" data-name="Path 14484" d="M26.12,28.56V41.789l-1.56,6.552L23,41.789V28.56a1.56,1.56,0,1,1,3.12,0Z" transform="translate(8.2 8.88)" fill="#fff"/>
        <path id="Path_14485" data-name="Path 14485" d="M26.12,28.56V41.789l-1.56,6.552L23,41.789V28.56a1.56,1.56,0,1,1,3.12,0Z" transform="translate(8.2 8.88)" fill="#fff"/>
        <path id="Path_14486" data-name="Path 14486" d="M15.245,28.092A6.24,6.24,0,0,0,12,33.568V56.39H29.16l-7.6-31.73Z" transform="translate(2.04 7.57)" fill="#fff"/>
      </g>
    </g>
  </g>
</svg>
