<svg xmlns="http://www.w3.org/2000/svg" width="91.048" height="90.079" viewBox="0 0 91.048 90.079">
  <g id="Group_4992" data-name="Group 4992" transform="translate(-1358 -1033)">
    <g id="Group_4933" data-name="Group 4933" transform="translate(1358 1033)">
      <path id="Path_14454" data-name="Path 14454" d="M308.137,46.281a1.641,1.641,0,1,0-1.641-1.641A1.641,1.641,0,0,0,308.137,46.281Zm0,0" transform="translate(-256.293 -35.945)" fill="#575757"/>
      <path id="Path_14455" data-name="Path 14455" d="M287.137,179.277a1.641,1.641,0,1,0-1.641-1.641A1.641,1.641,0,0,0,287.137,179.277Zm0,0" transform="translate(-238.739 -147.122)" fill="#575757"/>
      <path id="Path_14456" data-name="Path 14456" d="M128.137,46.281a1.641,1.641,0,1,0-1.641-1.641A1.641,1.641,0,0,0,128.137,46.281Zm0,0" transform="translate(-105.825 -35.945)" fill="#575757"/>
      <path id="Path_14457" data-name="Path 14457" d="M62.141,46.281A1.641,1.641,0,1,0,60.5,44.641,1.641,1.641,0,0,0,62.141,46.281Zm0,0" transform="translate(-50.656 -35.945)" fill="#575757"/>
      <path id="Path_14458" data-name="Path 14458" d="M79.577,0H5.422A4.927,4.927,0,0,0,.5,4.922V69.233a4.927,4.927,0,0,0,4.922,4.922H65.375L73.3,82.076a6.561,6.561,0,0,0,9.464-9.086A4.916,4.916,0,0,0,84.5,69.233V4.922A4.928,4.928,0,0,0,79.577,0ZM5.422,3.281H79.577a1.643,1.643,0,0,1,1.641,1.641v9.188H3.781V4.922A1.642,1.642,0,0,1,5.422,3.281Zm0,67.593a1.642,1.642,0,0,1-1.641-1.641V17.391H81.218V69.233a1.639,1.639,0,0,1-.8,1.407L68.25,61.03c-.641-.641-1.526-1.379-2.167-.738H63.113l-3.432-3.432a21.326,21.326,0,1,0-2.32,2.32l3.432,3.432.374,2.554c-.64.641-1.015,1.443-.374,2.083l1.3,3.624Zm56.531-4.781,4.641-4.641,2.32,2.321-4.64,4.64ZM43.484,61.03A18.047,18.047,0,1,1,61.53,42.984,18.067,18.067,0,0,1,43.484,61.03ZM80.256,79.757a3.277,3.277,0,0,1-4.639,0l-9.023-9.022,4.64-4.641,9.023,9.024a3.278,3.278,0,0,1,0,4.639Zm0,0" transform="translate(-0.5)" fill="#575757"/>
      <path id="Path_14459" data-name="Path 14459" d="M348.133,46.281h14.109a1.641,1.641,0,0,0,0-3.281H348.133a1.641,1.641,0,0,0,0,3.281Zm0,0" transform="translate(-289.728 -35.945)" fill="#575757"/>
      <path id="Path_14460" data-name="Path 14460" d="M187.262,172A14.783,14.783,0,0,0,172.5,186.762a1.641,1.641,0,1,0,3.281,0,11.5,11.5,0,0,1,11.484-11.484,1.641,1.641,0,0,0,0-3.281Zm0,0" transform="translate(-144.278 -143.778)" fill="#575757"/>
    </g>
    <g id="Ellipse_1879" data-name="Ellipse 1879" transform="translate(1378 1053)" fill="none" stroke="#54a233" stroke-width="5">
      <circle cx="23" cy="23" r="23" stroke="none"/>
      <circle cx="23" cy="23" r="20.5" fill="none"/>
    </g>
    <g id="Path_14461" data-name="Path 14461" transform="translate(1444.808 1112.257) rotate(133)" fill="#fff">
      <path d="M 4.5 29.5 C 1.191589951515198 29.5 -1.5 26.80841064453125 -1.5 23.5 L -1.5 2.700000047683716 C -1.5 0.3841100037097931 0.3841100037097931 -1.5 2.700000047683716 -1.5 L 6.300000190734863 -1.5 C 8.615889549255371 -1.5 10.5 0.3841100037097931 10.5 2.700000047683716 L 10.5 11.77766036987305 L 10.5 23.5 C 10.5 26.80841064453125 7.808410167694092 29.5 4.5 29.5 Z" stroke="none"/>
      <path d="M 2.699999809265137 0 C 1.208829879760742 0 0 1.208829879760742 0 2.700000762939453 L 0 23.5 C 0 25.98527908325195 2.01471996307373 28 4.5 28 C 6.98528003692627 28 9 25.98527908325195 9 23.5 L 9 2.700000762939453 C 9 1.208829879760742 7.791170120239258 0 6.300000190734863 0 L 2.699999809265137 0 M 2.699999809265137 -3 L 6.300000190734863 -3 C 9.442990303039551 -3 12 -0.4429893493652344 12 2.700000762939453 L 12 23.5 C 12 27.6355094909668 8.635510444641113 31 4.5 31 C 0.3644895553588867 31 -3 27.6355094909668 -3 23.5 L -3 2.700000762939453 C -3 -0.4429893493652344 -0.4429903030395508 -3 2.699999809265137 -3 Z" stroke="none" fill="#54a233"/>
    </g>
    <g id="Rectangle_4024" data-name="Rectangle 4024" transform="translate(1422.269 1104.938) rotate(-47)" fill="#54a233" stroke="#54a233" stroke-width="1">
      <rect width="12" height="3" stroke="none"/>
      <rect x="0.5" y="0.5" width="11" height="2" fill="none"/>
    </g>
  </g>
</svg>
