<svg width="17" height="18" viewBox="0 0 17 18" fill="none" xmlns="http://www.w3.org/2000/svg">
<g clip-path="url(#clip0)">
<path d="M14.7853 1.75418C14.3469 1.34301 12.5843 0.0318447 8.65284 0.0135706C8.65284 0.0135706 4.01814 -0.274247 1.75787 1.85012C0.497595 3.13844 0.0546733 5.02525 0.00901129 7.35976C-0.0366508 9.69885 -0.0960116 14.0801 4.02727 15.2679H4.03184V17.0816C4.03184 17.0816 4.00444 17.8171 4.47933 17.9633C5.0501 18.1461 5.38344 17.5887 5.93138 16.9857C6.23275 16.6567 6.64371 16.1725 6.95421 15.8024C9.77612 16.0445 11.9451 15.4872 12.1871 15.4095C12.7579 15.2176 15.977 14.7973 16.5021 10.4161C17.0364 5.89783 16.2327 3.0425 14.7853 1.75418Z" fill="#834995"/>
<path d="M12.2694 10.6354C12.2694 10.6354 11.7397 10.1832 11.484 9.99128C11.242 9.80854 10.8539 9.56184 10.6393 9.43849C10.2511 9.2192 9.85388 9.35626 9.6895 9.57555L9.34703 10.0141C9.17351 10.238 8.90411 10.1969 8.83561 10.1832C8.33333 10.0552 7.79909 9.74458 7.25114 9.21463C6.69863 8.68012 6.36073 8.12276 6.24201 7.54255L6.23287 7.506C6.20091 7.26844 6.24201 7.1588 6.3379 6.99433L6.35616 6.98062C6.58447 6.7659 7.0137 6.5055 7.06849 6.2588C7.23744 5.82935 6.50685 4.92935 6.40639 4.77402C6.40639 4.77402 5.87671 4.07504 5.6895 3.93798C5.48858 3.76895 5.17351 3.67301 4.85388 3.86946L4.83561 3.88316C3.92694 4.48621 3.59817 4.84255 3.6895 5.36793L3.73516 5.58265C4.19634 7.04001 5.09132 8.59331 6.42009 9.97758C7.73516 11.3436 9.15982 12.1613 10.5616 12.7278C10.9269 12.8512 11.3059 12.7461 11.6941 12.4126L11.6986 12.408C11.9954 12.1294 12.2329 11.8324 12.4064 11.5126V11.508C12.5799 11.17 12.5205 10.8547 12.2694 10.6354Z" fill="white"/>
<path d="M10.0866 7.44662C10.0318 7.44662 9.9861 7.40093 9.98153 7.34611C9.96327 6.96692 9.86281 6.6791 9.68016 6.48723C9.49751 6.29535 9.22811 6.19027 8.87194 6.16743C8.81258 6.16286 8.77148 6.11261 8.77148 6.05322C8.77605 5.99382 8.82171 5.94814 8.88107 5.95271C9.29203 5.97555 9.6071 6.10347 9.82628 6.33646C10.0455 6.56946 10.1687 6.90296 10.187 7.33697C10.1916 7.39636 10.1459 7.44662 10.0866 7.45118" fill="white"/>
<path d="M11.1227 7.80203C11.0634 7.80203 11.0177 7.75178 11.0177 7.69239C11.036 6.96599 10.8213 6.35381 10.3876 5.86954C10.1729 5.62741 9.90811 5.43553 9.60674 5.30305C9.30537 5.16599 8.94921 5.08376 8.56108 5.05634C8.50172 5.05178 8.46062 5.00152 8.46519 4.94213C8.46976 4.88274 8.51998 4.83706 8.57934 4.84162C9.41496 4.90558 10.0771 5.20254 10.5474 5.72792C11.0177 6.2533 11.2506 6.92031 11.2323 7.70153C11.2277 7.75178 11.1821 7.80203 11.1227 7.80203Z" fill="white"/>
<path d="M12.187 8.22736C12.1276 8.22736 12.082 8.18168 12.082 8.12229C12.0774 7.48269 11.9815 6.90249 11.7943 6.39995C11.6071 5.90199 11.3286 5.46341 10.9633 5.09336C10.598 4.72787 10.1779 4.44919 9.72581 4.26189C9.26919 4.07458 8.76234 3.97864 8.2144 3.97864C8.15504 3.97864 8.10938 3.92838 8.10938 3.86899C8.10938 3.8096 8.15504 3.76392 8.2144 3.76392C9.36508 3.77305 10.3377 4.16595 11.1094 4.93803C11.4975 5.32635 11.7943 5.79234 11.9907 6.32229C12.187 6.84767 12.2875 7.45528 12.292 8.12229C12.292 8.17711 12.2464 8.22736 12.187 8.22736Z" fill="white"/>
</g>
<defs>
<clipPath id="clip0">
<rect width="16.6667" height="18" fill="white"/>
</clipPath>
</defs>
</svg>
