<svg xmlns="http://www.w3.org/2000/svg" width="117" height="117" viewBox="0 0 117 117">
  <g id="Group_5280" data-name="Group 5280" transform="translate(-586 -1641)">
    <rect id="Rectangle_4095" data-name="Rectangle 4095" width="117" height="117" rx="50" transform="translate(586 1641)" fill="#437fc7"/>
    <g id="User_Profile" transform="translate(607 1676.88)">
      <path id="Path_14622" data-name="Path 14622" d="M45.3,37.775c-3.605.51-6.754,3.894-6.785,3.925a.761.761,0,0,1-.152.122c-4.9,3.179-7.66.761-7.774.616-3.134-2.822-.259-7.553-.137-7.751a28.851,28.851,0,0,1,4.625-5.827h-13.3L16,47.906a.7.7,0,0,1,.167.129c8.96,10.132,20.857,19.122,25.55,22.515a2.4,2.4,0,0,0,3.1-3.643l-6.458-6.458a.761.761,0,1,1,1.08-1.073l3.438,3.438,3.043,3.043,1.521,1.559a2.913,2.913,0,1,0,4.154-4.085l-5.926-6.184-1.126-1.164a.764.764,0,1,1,1.08-1.08l8.648,8.976a3.043,3.043,0,0,0,5.18-2.031,2.959,2.959,0,0,0-.913-2.229L53.347,54.6l-3.613-3.507a.761.761,0,1,1,1.057-1.088L61.06,59.947a2.86,2.86,0,1,0,3.917-4.161Z" transform="translate(-6.872 -21.933)" fill="#fff"/>
      <path id="Path_14623" data-name="Path 14623" d="M16.581,22.223A28.083,28.083,0,0,0,4,19.774V49.606H8.648a2.282,2.282,0,0,0,2.2-1.651l6.983-22.994a2.282,2.282,0,0,0-1.247-2.738Z" transform="translate(-4 -19.753)" fill="#fff"/>
      <path id="Path_14624" data-name="Path 14624" d="M52.372,24.771a7.142,7.142,0,0,0-5.142-.114c-2.913,1.065-7.165,3.621-10.9,9.721,0,.046-2.335,3.8-.137,5.827.076.068,2.039,1.711,5.842-.715.548-.57,3.978-4.009,8.032-4.381a.761.761,0,0,1,.578.2L70.582,53.561c.091.084.175.175.259.266a6.644,6.644,0,0,0,4.244-3.195L67.859,30.94Z" transform="translate(-11.48 -20.826)" fill="#fff"/>
      <path id="Path_14625" data-name="Path 14625" d="M93.577,24.55A33.628,33.628,0,0,0,80.9,26.938a2.282,2.282,0,0,0-1.232,2.913l8.466,23.04a2.335,2.335,0,0,0,2.175,1.521H95.1V24.588C94.718,24.565,94.193,24.55,93.577,24.55Z" transform="translate(-22.077 -20.901)" fill="#fff"/>
    </g>
  </g>
</svg>
