<svg xmlns="http://www.w3.org/2000/svg" width="91.734" height="86" viewBox="0 0 91.734 86">
  <g id="Group_4990" data-name="Group 4990" transform="translate(-1067 -1032)">
    <g id="cliff" transform="translate(1067 1032)">
      <path id="Path_14449" data-name="Path 14449" d="M83.671,0H8.063A8.072,8.072,0,0,0,0,8.063v53.75a8.072,8.072,0,0,0,8.063,8.063H31.388L27.8,80.625H18.992a2.688,2.688,0,0,0,0,5.375h53.75a2.688,2.688,0,0,0,0-5.375H63.929l-3.583-10.75H83.671a8.072,8.072,0,0,0,8.063-8.062V8.063A8.072,8.072,0,0,0,83.671,0ZM33.47,80.625l3.583-10.75H54.679l3.583,10.75ZM86.358,61.813A2.691,2.691,0,0,1,83.671,64.5H8.063a2.691,2.691,0,0,1-2.687-2.687V59.125H86.358ZM29.308,38.3,26.863,35.86l3.8-3.8L33.108,34.5a2.687,2.687,0,0,0,3.266.414,18.658,18.658,0,0,1,4.792-1.994,2.687,2.687,0,0,0,2.014-2.6V26.875h5.375v3.448a2.687,2.687,0,0,0,2.014,2.6,18.641,18.641,0,0,1,4.791,1.995,2.688,2.688,0,0,0,3.266-.415l2.445-2.445,3.8,3.8L62.426,38.3a2.686,2.686,0,0,0-.414,3.265,18.654,18.654,0,0,1,1.994,4.792,2.687,2.687,0,0,0,2.6,2.014h3.448V53.75H59.033a13.438,13.438,0,1,0-26.332,0H21.679V48.375h3.448a2.688,2.688,0,0,0,2.6-2.014,18.652,18.652,0,0,1,1.993-4.792,2.689,2.689,0,0,0-.414-3.266ZM53.929,51.062a8.092,8.092,0,0,1-.462,2.688h-15.2a8.062,8.062,0,1,1,15.663-2.687ZM86.358,53.75H75.429V45.687A2.687,2.687,0,0,0,72.742,43H68.59a24.106,24.106,0,0,0-.958-2.3l2.939-2.939a2.688,2.688,0,0,0,0-3.8l-7.6-7.6a2.688,2.688,0,0,0-3.8,0L56.23,29.3a23.919,23.919,0,0,0-2.3-.957V24.187A2.687,2.687,0,0,0,51.242,21.5H40.492A2.687,2.687,0,0,0,37.8,24.187V28.34a23.921,23.921,0,0,0-2.3.957l-2.939-2.939a2.689,2.689,0,0,0-3.8,0l-7.6,7.6a2.687,2.687,0,0,0,0,3.8L24.1,40.7a24.013,24.013,0,0,0-.957,2.3H18.992A2.688,2.688,0,0,0,16.3,45.687V53.75H5.375V8.062A2.691,2.691,0,0,1,8.062,5.375H83.671a2.691,2.691,0,0,1,2.688,2.688Zm0,0" fill="#575757"/>
      <path id="Path_14450" data-name="Path 14450" d="M369.063,60a8.063,8.063,0,1,0,8.063,8.063A8.072,8.072,0,0,0,369.063,60Zm0,10.75a2.688,2.688,0,1,1,2.688-2.687A2.691,2.691,0,0,1,369.063,70.75Zm0,0" transform="translate(-296.321 -49.25)" fill="#575757"/>
    </g>
    <rect id="Rectangle_4023" data-name="Rectangle 4023" width="81" height="49" rx="2" transform="translate(1072 1037)" fill="#fff"/>
    <g id="Group_4932" data-name="Group 4932" transform="translate(-94.53 16.976)">
      <path id="Path_14451" data-name="Path 14451" d="M212.318,129.635a2.389,2.389,0,0,0,3.205-1.068l9.556-19.112a2.389,2.389,0,1,0-4.274-2.137L211.25,126.43A2.389,2.389,0,0,0,212.318,129.635Z" transform="translate(988.644 927.136)" fill="#54a233"/>
      <path id="Path_14452" data-name="Path 14452" d="M101.255,129.19a2.389,2.389,0,1,0,3.378-3.378l-7.867-7.867,7.867-7.867a2.389,2.389,0,0,0-3.378-3.379L91.7,116.255a2.389,2.389,0,0,0,0,3.378Z" transform="translate(1089.53 927.134)" fill="#54a233"/>
      <path id="Path_14453" data-name="Path 14453" d="M331.7,129.19a2.389,2.389,0,0,0,3.379,0l9.556-9.556a2.389,2.389,0,0,0,0-3.378l-9.556-9.556a2.389,2.389,0,0,0-3.379,3.379l7.867,7.867-7.867,7.867A2.389,2.389,0,0,0,331.7,129.19Z" transform="translate(887.753 927.134)" fill="#54a233"/>
    </g>
  </g>
</svg>
