<svg id="cliff" xmlns="http://www.w3.org/2000/svg" width="80" height="80" viewBox="0 0 80 80">
  <g id="Group_4927" data-name="Group 4927" transform="translate(11.875 16.563)">
    <g id="Group_4926" data-name="Group 4926">
      <path id="Path_14442" data-name="Path 14442" d="M94.7,131.322l-4.687-23.438a2.344,2.344,0,0,0-2.3-1.884H83.029a2.344,2.344,0,0,0-2.3,1.884l-4.687,23.438a2.344,2.344,0,0,0,4.6.919l1.5-7.491h6.47l1.5,7.491a2.344,2.344,0,1,0,4.6-.919ZM83.076,120.063l1.875-9.375H85.8l1.875,9.375Z" transform="translate(-75.998 -106)" fill="#54a233"/>
    </g>
  </g>
  <g id="Group_4929" data-name="Group 4929" transform="translate(47.031 30.625)">
    <g id="Group_4928" data-name="Group 4928">
      <path id="Path_14443" data-name="Path 14443" d="M322.094,200.688h-7.031v-2.344a2.344,2.344,0,0,0-4.687,0v2.344h-7.031a2.344,2.344,0,0,0,0,4.688h.567a29.321,29.321,0,0,0,5.559,10.28c-1.8,1.647-3.623,3-5.246,4.3a2.344,2.344,0,0,0,2.928,3.66c1.632-1.306,3.589-2.757,5.567-4.572,1.98,1.817,3.94,3.271,5.567,4.572a2.344,2.344,0,0,0,2.928-3.66c-1.619-1.3-3.443-2.648-5.246-4.3a29.321,29.321,0,0,0,5.559-10.28h.567a2.344,2.344,0,0,0,0-4.687Zm-9.375,11.523a24.69,24.69,0,0,1-3.857-6.851h7.713A24.684,24.684,0,0,1,312.719,212.21Z" transform="translate(-301 -196)" fill="#54a233"/>
    </g>
  </g>
  <g id="Group_4931" data-name="Group 4931">
    <g id="Group_4930" data-name="Group 4930">
      <path id="Path_14444" data-name="Path 14444" d="M72.969,14.219H39.156l-1-8.06A7.042,7.042,0,0,0,31.175,0H7.031A7.039,7.039,0,0,0,0,7.031V58.75a7.039,7.039,0,0,0,7.031,7.031H26.794l.992,8.06A7.047,7.047,0,0,0,34.763,80H72.969A7.039,7.039,0,0,0,80,72.969V21.25A7.039,7.039,0,0,0,72.969,14.219ZM7.031,61.094A2.346,2.346,0,0,1,4.688,58.75V7.031A2.346,2.346,0,0,1,7.031,4.688H31.175A2.347,2.347,0,0,1,33.5,6.74l6.776,54.354ZM32.3,72.148l-.784-6.367h6.288Zm43.012.82a2.346,2.346,0,0,1-2.344,2.344H35.762l8.922-10.321a2.34,2.34,0,0,0,.567-1.879L39.74,18.906H72.969a2.346,2.346,0,0,1,2.344,2.344Z" fill="#575757"/>
    </g>
  </g>
</svg>
