<svg xmlns="http://www.w3.org/2000/svg" width="86" height="86.075" viewBox="0 0 86 86.075">
  <g id="Group_4925" data-name="Group 4925" transform="translate(-206 -1044)">
    <path id="Path_14428" data-name="Path 14428" d="M7.559,86H58.285a7.567,7.567,0,0,0,7.559-7.559V15.117H75.922V7.559A7.567,7.567,0,0,0,68.363,0H17.637a7.567,7.567,0,0,0-7.559,7.559V70.883H0v7.559A7.567,7.567,0,0,0,7.559,86ZM70.883,7.559v2.52H65.844V7.559a2.52,2.52,0,0,1,5.039,0ZM17.637,5.037h43.6A7.539,7.539,0,0,0,60.8,7.559V78.441a2.52,2.52,0,0,1-5.039,0V70.883H15.117V7.559a2.524,2.524,0,0,1,2.52-2.521ZM5.039,75.922H50.727v2.52a7.527,7.527,0,0,0,.433,2.52H7.559a2.523,2.523,0,0,1-2.52-2.52Zm0,0" transform="translate(206 1044)" fill="#575757"/>
    <path id="Path_14430" data-name="Path 14430" d="M120,302h28.594v5.039H120Zm0,0" transform="translate(106.156 792.727)" fill="#575757"/>
    <path id="Path_14432" data-name="Path 14432" d="M432.078,151h-5.039v5.207H422v38.387l7.559,15.117,7.559-15.117V156.207h-5.039Zm0,10.246v5.039h-5.039v-5.039Zm-2.52,37.2-2.52-5.039V171.324h5.039v22.081Zm0,0" transform="translate(-145.117 920.363)" fill="#54a233"/>
    <path id="Path_14434" data-name="Path 14434" d="M120,302h35.609v5.039H120Zm0,0" transform="translate(106.156 782.727)" fill="#575757"/>
    <path id="Path_14435" data-name="Path 14435" d="M120,302h35.609v5.039H120Zm0,0" transform="translate(106.156 772.727)" fill="#575757"/>
    <path id="Path_14436" data-name="Path 14436" d="M120,302h35.609v5.039H120Zm0,0" transform="translate(106.156 762.727)" fill="#575757"/>
    <path id="Path_14437" data-name="Path 14437" d="M120,302h35.609v5.039H120Zm0,0" transform="translate(106.156 752.727)" fill="#575757"/>
  </g>
</svg>
