<svg xmlns="http://www.w3.org/2000/svg" width="82" height="84.582" viewBox="0 0 82 84.582">
  <g id="Group_4958" data-name="Group 4958" transform="translate(-576.814 -942)">
    <g id="cliff" transform="translate(576.814 942)">
      <g id="Group_4935" data-name="Group 4935" transform="translate(65.65 31.82)">
        <g id="Group_4934" data-name="Group 4934">
          <path id="Path_14462" data-name="Path 14462" d="M408.034,193.1a1.652,1.652,0,0,0-2.336,2.336c.025.025.052.051.077.075a1.652,1.652,0,0,0,2.259-2.412Z" transform="translate(-405.214 -192.615)" fill="#575757"/>
        </g>
      </g>
      <g id="Group_4937" data-name="Group 4937" transform="translate(44.265 25.313)">
        <g id="Group_4936" data-name="Group 4936">
          <path id="Path_14463" data-name="Path 14463" d="M296.613,157.507a25.865,25.865,0,0,0-2.886-1.7,22.156,22.156,0,0,0-16.8-1.6,1.652,1.652,0,1,0,.98,3.155,18.913,18.913,0,0,1,14.335,1.4,23,23,0,0,1,2.515,1.485,1.652,1.652,0,1,0,1.856-2.734Z" transform="translate(-275.764 -153.23)" fill="#575757"/>
        </g>
      </g>
      <g id="Group_4939" data-name="Group 4939" transform="translate(10.548 10.483)">
        <g id="Group_4938" data-name="Group 4938">
          <path id="Path_14464" data-name="Path 14464" d="M141.263,103.943a21.255,21.255,0,0,1-1.819-4.552c1.932-4.762,1.227-10.031-1.991-14.851-4.948-7.413-15.09-12.793-24.114-12.793A29.561,29.561,0,0,0,99.72,75.056,14.141,14.141,0,1,0,78.431,89.667a2.761,2.761,0,0,1,1.6,2.454v9.667a3.349,3.349,0,0,0,3.344,3.345h.562A29.422,29.422,0,0,0,93.9,123.763c.052.163.205.928-.451,3.211-.511,1.778-1.3,3.753-1.988,5.5-.463,1.166-.863,2.173-1.105,2.935a1.652,1.652,0,0,0,1.575,2.152h23.581a2.681,2.681,0,0,0,2.509-2,16.15,16.15,0,0,0,.684-2.5c.2-.893.656-2.984,1.114-3.236a.334.334,0,0,1,.092.005,1.624,1.624,0,0,0,.256.02c2.47,0,4.487.112,6.268.211,5.222.29,8.374.465,11.139-3.518,1.406-2.026,1.247-4.98,1.078-8.108a29.507,29.507,0,0,1-.017-4.659,14.417,14.417,0,0,1,1.463-1.09c1.557-1.07,3.028-2.08,3.028-3.615C143.12,107.9,142.414,106.359,141.263,103.943ZM80.158,86.85a10.838,10.838,0,1,1,11.307,0,6.011,6.011,0,0,0-2.9,3.539H83.054A6.015,6.015,0,0,0,80.158,86.85Zm8.134,6.844V96.11H83.331V93.694Zm-4.92,8.136a.048.048,0,0,1-.04-.041V99.414h4.961v2.374a.048.048,0,0,1-.041.041Zm54.85,8.128c-1.422.977-2.65,1.82-2.831,3.1a29.409,29.409,0,0,0-.044,5.555c.125,2.321.267,4.951-.493,6.046-1.644,2.368-3.065,2.391-8.242,2.1-1.708-.095-3.827-.212-6.339-.216a3.521,3.521,0,0,0-3.687,2.185,15.348,15.348,0,0,0-1.113,3.619,17.556,17.556,0,0,1-.49,1.907H94.3l.224-.564c2.38-5.992,3.887-10.387,1.593-12.371a26.143,26.143,0,0,1-8.853-16.185h.983a3.349,3.349,0,0,0,3.345-3.345V92.125a2.762,2.762,0,0,1,1.6-2.457,14.045,14.045,0,0,0,6.717-10.936,26.247,26.247,0,0,1,13.431-3.68c7.871,0,17.057,4.868,21.366,11.324,1.847,2.767,3.631,7.071,1.641,11.863-.648,1.561.313,3.725,1.934,7.127a29.812,29.812,0,0,1,1.486,3.44A15.611,15.611,0,0,1,138.222,109.957Z" transform="translate(-71.668 -63.458)" fill="#575757"/>
        </g>
      </g>
      <g id="Group_4941" data-name="Group 4941" transform="translate(26.878 17.919)">
        <g id="Group_4940" data-name="Group 4940">
          <path id="Path_14465" data-name="Path 14465" d="M176.431,112.842a6.614,6.614,0,0,0-3.507-4.188,1.652,1.652,0,0,0-1.515,2.937,3.312,3.312,0,0,1,1.832,2.112,5.009,5.009,0,0,1-.458,3.413,1.652,1.652,0,1,0,2.786,1.776A8.281,8.281,0,0,0,176.431,112.842Z" transform="translate(-170.514 -108.47)" fill="#575757"/>
        </g>
      </g>
      <g id="Group_4943" data-name="Group 4943" transform="translate(23.039)">
        <g id="Group_4942" data-name="Group 4942">
          <path id="Path_14466" data-name="Path 14466" d="M148.931,0a1.652,1.652,0,0,0-1.652,1.652V6.361a1.652,1.652,0,0,0,3.3,0V1.652A1.652,1.652,0,0,0,148.931,0Z" transform="translate(-147.279 0)" fill="#575757"/>
        </g>
      </g>
      <g id="Group_4945" data-name="Group 4945" transform="translate(0 23.039)">
        <g id="Group_4944" data-name="Group 4944">
          <path id="Path_14467" data-name="Path 14467" d="M14.176,139.465H9.467a1.652,1.652,0,1,0,0,3.3h4.71a1.652,1.652,0,0,0,0-3.3Z" transform="translate(-7.815 -139.465)" fill="#575757"/>
        </g>
      </g>
      <g id="Group_4947" data-name="Group 4947" transform="translate(11.519 3.087)">
        <g id="Group_4946" data-name="Group 4946">
          <path id="Path_14468" data-name="Path 14468" d="M82.982,23.587,80.628,19.51a1.652,1.652,0,1,0-2.861,1.652l2.354,4.077a1.652,1.652,0,0,0,2.861-1.652Z" transform="translate(-77.545 -18.684)" fill="#575757"/>
        </g>
      </g>
      <g id="Group_4949" data-name="Group 4949" transform="translate(3.086 11.52)">
        <g id="Group_4948" data-name="Group 4948">
          <path id="Path_14469" data-name="Path 14469" d="M33.051,72.31l-4.077-2.354a1.652,1.652,0,0,0-1.652,2.861L31.4,75.171a1.652,1.652,0,0,0,1.652-2.861Z" transform="translate(-26.495 -69.735)" fill="#575757"/>
        </g>
      </g>
      <g id="Group_4951" data-name="Group 4951" transform="translate(38.915 11.52)">
        <g id="Group_4950" data-name="Group 4950">
          <path id="Path_14470" data-name="Path 14470" d="M250.542,70.559a1.652,1.652,0,0,0-2.257-.6l-4.077,2.354a1.652,1.652,0,1,0,1.652,2.861l4.077-2.354A1.652,1.652,0,0,0,250.542,70.559Z" transform="translate(-243.382 -69.732)" fill="#575757"/>
        </g>
      </g>
      <g id="Group_4953" data-name="Group 4953" transform="translate(3.086 32.205)">
        <g id="Group_4952" data-name="Group 4952">
          <path id="Path_14471" data-name="Path 14471" d="M33.656,195.772a1.652,1.652,0,0,0-2.256-.6l-4.078,2.354a1.652,1.652,0,1,0,1.652,2.862l4.078-2.354A1.652,1.652,0,0,0,33.656,195.772Z" transform="translate(-26.495 -194.946)" fill="#575757"/>
        </g>
      </g>
      <g id="Group_4955" data-name="Group 4955" transform="translate(11.519 39.503)">
        <g id="Group_4954" data-name="Group 4954">
          <path id="Path_14472" data-name="Path 14472" d="M82.038,239.348a1.653,1.653,0,0,0-2.257.6l-2.014,3.489a1.652,1.652,0,1,0,2.861,1.652l2.014-3.489A1.652,1.652,0,0,0,82.038,239.348Z" transform="translate(-77.545 -239.127)" fill="#575757"/>
        </g>
      </g>
      <g id="Group_4957" data-name="Group 4957" transform="translate(32.205 3.086)">
        <g id="Group_4956" data-name="Group 4956">
          <path id="Path_14473" data-name="Path 14473" d="M207.6,18.9a1.652,1.652,0,0,0-2.257.6l-2.354,4.077a1.652,1.652,0,1,0,2.861,1.652l2.354-4.077A1.652,1.652,0,0,0,207.6,18.9Z" transform="translate(-202.763 -18.683)" fill="#575757"/>
        </g>
      </g>
    </g>
  </g>
</svg>
