<svg xmlns="http://www.w3.org/2000/svg" width="661.5" height="546.307" viewBox="0 0 661.5 546.307">
  <g id="Happy_guy_sitting_on_sofa_and_working_from_home_Converted_" data-name="Happy guy sitting on sofa and working from home [Converted]" transform="translate(-347.541 -377.586)">
    <g id="Group_4519" data-name="Group 4519" transform="translate(481.281 554.228)">
      <path id="Path_14042" data-name="Path 14042" d="M721.339,963.819s-2.4-187.909-53.367-185.342,29.509,125.559,28.476,180.283Z" transform="translate(-651.046 -778.452)" fill="#ffbb01"/>
    </g>
    <g id="Group_4520" data-name="Group 4520" transform="translate(448.012 585.349)">
      <path id="Path_14043" data-name="Path 14043" d="M676.011,999.362s-36.229-159.5-86.6-149.865,52.04,102.5,60.862,149.2Z" transform="translate(-575.546 -849.077)" fill="#83bb26"/>
    </g>
    <g id="Group_4522" data-name="Group 4522" transform="translate(470.233 606.847)">
      <g id="Group_4521" data-name="Group 4521">
        <path id="Path_14044" data-name="Path 14044" d="M689.818,1026.409c-5.505-32.366-22.569-65.366-35.914-87.349A393.319,393.319,0,0,0,625.975,898.7l1.016-.831a394.956,394.956,0,0,1,28.035,40.515c13.4,22.081,30.545,55.239,36.085,87.809Z" transform="translate(-625.975 -897.865)" fill="#e3ffd2"/>
      </g>
    </g>
    <g id="Group_4524" data-name="Group 4524" transform="translate(347.541 604.733)">
      <g id="Group_4523" data-name="Group 4523">
        <path id="Path_14045" data-name="Path 14045" d="M370.489,954.627c19.263,17.051-3.009,48.2,25.433,56.063s27.276,5.09,33.2,22.69c0,0-2.364,14.82,7.751,20.438,31.685,17.6,36.583-14.142,73.891-21.144,10.447-1.96,20.362-4.192,29.357-6.573a36.191,36.191,0,0,0-4.719-26.2,42.051,42.051,0,0,0-9.8-10.684c-23.56-18.522-38.259-11.186-41.52-53.032s-55.366-13.717-71.82-24.972-28.8-25.014-52.592-14.237S351.217,937.591,370.489,954.627Z" transform="translate(-347.541 -893.067)" fill="#54a233"/>
      </g>
    </g>
    <g id="Group_4535" data-name="Group 4535" transform="translate(352.775 612.106)">
      <g id="Group_4526" data-name="Group 4526" transform="translate(0 0)">
        <g id="Group_4525" data-name="Group 4525">
          <path id="Path_14046" data-name="Path 14046" d="M505.879,1044.431l1.51-.762c-.335-.666-34.89-67.4-147.108-133.871l-.862,1.456C471.216,977.475,505.544,1043.77,505.879,1044.431Z" transform="translate(-359.419 -909.799)" fill="#e3ffd2"/>
        </g>
      </g>
      <g id="Group_4528" data-name="Group 4528" transform="translate(99.981 35.169)">
        <g id="Group_4527" data-name="Group 4527">
          <path id="Path_14047" data-name="Path 14047" d="M586.685,1005.461c22.573-5.082,31.227-14.317,31.583-14.707l-1.247-1.143c-.085.092-8.711,9.247-30.708,14.2Z" transform="translate(-586.313 -989.611)" fill="#e3ffd2"/>
        </g>
      </g>
      <g id="Group_4530" data-name="Group 4530" transform="translate(87.946 11.743)">
        <g id="Group_4529" data-name="Group 4529">
          <path id="Path_14048" data-name="Path 14048" d="M559.878,990.187c8.38-5.063,13.987-15.988,16.214-31.6a113.1,113.1,0,0,0,.858-22.141l-1.686.135c.032.4,3.009,40.514-16.263,52.154Z" transform="translate(-559.002 -936.449)" fill="#e3ffd2"/>
        </g>
      </g>
      <g id="Group_4532" data-name="Group 4532" transform="translate(1.557 34.911)">
        <g id="Group_4531" data-name="Group 4531">
          <path id="Path_14049" data-name="Path 14049" d="M421.731,1000.238c2.624-.493,4.133-.922,4.2-.942l-.476-1.623c-.317.093-32.12,9.1-61.633-8.646l-.871,1.449C386.734,1004.777,411.958,1002.071,421.731,1000.238Z" transform="translate(-362.953 -989.026)" fill="#e3ffd2"/>
        </g>
      </g>
      <g id="Group_4534" data-name="Group 4534" transform="translate(25.896 46.737)">
        <g id="Group_4533" data-name="Group 4533">
          <path id="Path_14050" data-name="Path 14050" d="M418.733,1041.093c11.14-3.8,17.381-10.34,20.655-15.158a29.555,29.555,0,0,0,4.5-9.735l-1.658-.338c-.034.166-3.651,16.673-24.048,23.629Z" transform="translate(-418.186 -1015.863)" fill="#e3ffd2"/>
        </g>
      </g>
    </g>
    <g id="Group_4556" data-name="Group 4556" transform="translate(370.943 735.647)">
      <g id="Group_4536" data-name="Group 4536" transform="translate(44.952 6.178)">
        <path id="Path_14051" data-name="Path 14051" d="M580.487,1204.18H502.662v83.7h69.079Z" transform="translate(-502.662 -1204.18)" fill="#015700"/>
      </g>
      <g id="Group_4537" data-name="Group 4537" transform="translate(4.789 6.178)">
        <path id="Path_14052" data-name="Path 14052" d="M491.316,1204.18h-79.8l3.5,83.7h76.3Z" transform="translate(-411.516 -1204.18)" fill="#54a233"/>
      </g>
      <g id="Group_4538" data-name="Group 4538" transform="translate(0)">
        <path id="Path_14053" data-name="Path 14053" d="M521.676,1190.16H402.7l-2.056,8.958,121.028,1.5Z" transform="translate(-400.648 -1190.16)" fill="#015700"/>
      </g>
      <g id="Group_4539" data-name="Group 4539" transform="translate(13.146 49.468)">
        <path id="Path_14054" data-name="Path 14054" d="M489.663,1330.354H435.435a3.177,3.177,0,0,1-3.166-2.915l-1.776-21.581a3.175,3.175,0,0,1,3.165-3.436h56.005a3.176,3.176,0,0,1,3.175,3.176v21.58A3.177,3.177,0,0,1,489.663,1330.354Z" transform="translate(-430.482 -1302.422)" fill="#94c358"/>
      </g>
      <g id="Group_4540" data-name="Group 4540" transform="translate(13.146 15.248)">
        <path id="Path_14055" data-name="Path 14055" d="M489.663,1252.694H435.435a3.177,3.177,0,0,1-3.166-2.915l-1.776-21.581a3.175,3.175,0,0,1,3.165-3.436h56.005a3.176,3.176,0,0,1,3.175,3.175v21.581A3.177,3.177,0,0,1,489.663,1252.694Z" transform="translate(-430.482 -1224.763)" fill="#94c358"/>
      </g>
      <g id="Group_4541" data-name="Group 4541" transform="translate(86.629)">
        <path id="Path_14056" data-name="Path 14056" d="M597.242,1190.16v10.034l34.4.427V1190.16Z" transform="translate(-597.242 -1190.16)" fill="#004600"/>
      </g>
      <g id="Group_4543" data-name="Group 4543" transform="translate(15.826 89.879)">
        <g id="Group_4542" data-name="Group 4542">
          <path id="Path_14057" data-name="Path 14057" d="M441.969,1394.13l-.9,4.154a2.314,2.314,0,0,1-2.7,2.179c-1.192-.018-2.049-2.054-1.748-3.932l.375-2.4h4.971Z" transform="translate(-436.562 -1394.129)" fill="#002b34"/>
        </g>
      </g>
      <g id="Group_4545" data-name="Group 4545" transform="translate(72.799 89.879)">
        <g id="Group_4544" data-name="Group 4544">
          <path id="Path_14058" data-name="Path 14058" d="M565.857,1394.13l.9,4.154a2.314,2.314,0,0,0,2.7,2.179c1.191-.018,2.049-2.054,1.748-3.932l-.376-2.4h-4.97Z" transform="translate(-565.857 -1394.129)" fill="#002b34"/>
        </g>
      </g>
      <g id="Group_4550" data-name="Group 4550" transform="translate(41.217 17.679)">
        <g id="Group_4547" data-name="Group 4547">
          <g id="Group_4546" data-name="Group 4546">
            <path id="Path_14059" data-name="Path 14059" d="M496.926,1235.669a2.985,2.985,0,0,1-2.29-.983,2.054,2.054,0,0,1-.4-1.774h0c.34-1.624,1.37-2.632,2.688-2.632,1.448,0,2.946.905,2.946,2.422A2.93,2.93,0,0,1,496.926,1235.669Zm-2.1-2.635a1.452,1.452,0,0,0,.277,1.269,2.369,2.369,0,0,0,1.82.76,2.33,2.33,0,0,0,2.341-2.363c0-1.137-1.191-1.817-2.341-1.817-1.527,0-1.991,1.649-2.1,2.152Z" transform="translate(-494.185 -1230.28)" fill="#002b34"/>
          </g>
        </g>
        <g id="Group_4549" data-name="Group 4549" transform="translate(2.105 4.279)">
          <g id="Group_4548" data-name="Group 4548">
            <path id="Path_14060" data-name="Path 14060" d="M499.7,1244.308h0a.74.74,0,0,1-.738-.738v-2.843a.74.74,0,0,1,.738-.737h0a.74.74,0,0,1,.738.737v2.843A.739.739,0,0,1,499.7,1244.308Z" transform="translate(-498.963 -1239.99)" fill="#002b34"/>
          </g>
        </g>
      </g>
      <g id="Group_4555" data-name="Group 4555" transform="translate(41.217 52.75)">
        <g id="Group_4552" data-name="Group 4552">
          <g id="Group_4551" data-name="Group 4551">
            <path id="Path_14061" data-name="Path 14061" d="M496.926,1315.259a2.982,2.982,0,0,1-2.29-.984,2.051,2.051,0,0,1-.4-1.773h0c.34-1.624,1.37-2.633,2.688-2.633,1.448,0,2.946.906,2.946,2.421A2.928,2.928,0,0,1,496.926,1315.259Zm-2.1-2.631a1.451,1.451,0,0,0,.277,1.269,2.367,2.367,0,0,0,1.82.76,2.33,2.33,0,0,0,2.341-2.364c0-1.137-1.191-1.817-2.341-1.817-1.527,0-1.991,1.645-2.1,2.152Z" transform="translate(-494.185 -1309.869)" fill="#002b34"/>
          </g>
        </g>
        <g id="Group_4554" data-name="Group 4554" transform="translate(2.105 4.28)">
          <g id="Group_4553" data-name="Group 4553">
            <path id="Path_14062" data-name="Path 14062" d="M499.7,1323.9h0a.74.74,0,0,1-.738-.738v-2.842a.74.74,0,0,1,.738-.738h0a.74.74,0,0,1,.738.738v2.842A.739.739,0,0,1,499.7,1323.9Z" transform="translate(-498.963 -1319.581)" fill="#002b34"/>
          </g>
        </g>
      </g>
    </g>
    <g id="Group_4598" data-name="Group 4598" transform="translate(548.477 542.51)">
      <g id="Group_4558" data-name="Group 4558" transform="translate(45.028 27.641)">
        <g id="Group_4557" data-name="Group 4557">
          <path id="Path_14063" data-name="Path 14063" d="M911.588,822.217c-3.153,1.987-4.722,1.577-5.5.341s-.473-2.828,2.68-4.817c5.744-3.62,9.931-3.133,9.931-3.133S917.416,818.544,911.588,822.217Z" transform="translate(-905.726 -814.586)" fill="#83bb26"/>
        </g>
      </g>
      <g id="Group_4560" data-name="Group 4560" transform="translate(38.412 61.431)">
        <g id="Group_4559" data-name="Group 4559">
          <path id="Path_14064" data-name="Path 14064" d="M894.678,895.558c-2.637.684-3.638.049-3.907-.984s.3-2.076,2.936-2.758c4.8-1.245,7.611.025,7.611.025S899.553,894.294,894.678,895.558Z" transform="translate(-890.711 -891.268)" fill="#83bb26"/>
        </g>
      </g>
      <g id="Group_4597" data-name="Group 4597" transform="translate(0 0)">
        <g id="Group_4563" data-name="Group 4563" transform="translate(15.168 36.871)">
          <g id="Group_4562" data-name="Group 4562">
            <g id="Group_4561" data-name="Group 4561">
              <path id="Path_14065" data-name="Path 14065" d="M874.786,920.952l-.7-.039c.006-.108.548-11.042-3.622-26.9-3.848-14.634-12.609-36.574-32.5-58l.516-.48c20,21.539,28.8,43.608,32.671,58.328C875.342,909.821,874.793,920.842,874.786,920.952Z" transform="translate(-837.962 -835.534)" fill="#83bb26"/>
            </g>
          </g>
        </g>
        <g id="Group_4566" data-name="Group 4566" transform="translate(34.856 15.307)">
          <g id="Group_4565" data-name="Group 4565">
            <g id="Group_4564" data-name="Group 4564">
              <path id="Path_14066" data-name="Path 14066" d="M883.248,835.376l-.606-.362c13.128-22,3.98-47.918,3.885-48.177l.663-.241C887.286,786.86,896.551,813.084,883.248,835.376Z" transform="translate(-882.642 -786.597)" fill="#83bb26"/>
            </g>
          </g>
        </g>
        <g id="Group_4569" data-name="Group 4569" transform="translate(11.732 49.157)">
          <g id="Group_4568" data-name="Group 4568">
            <g id="Group_4567" data-name="Group 4567">
              <path id="Path_14067" data-name="Path 14067" d="M842.916,867.239a24.987,24.987,0,0,1-12.751-3.228l.375-.6a23.682,23.682,0,0,0,15.574,2.759l.136.693A20.822,20.822,0,0,1,842.916,867.239Z" transform="translate(-830.165 -863.414)" fill="#83bb26"/>
            </g>
          </g>
        </g>
        <g id="Group_4572" data-name="Group 4572" transform="translate(14.057 85.037)">
          <g id="Group_4571" data-name="Group 4571">
            <g id="Group_4570" data-name="Group 4570">
              <path id="Path_14068" data-name="Path 14068" d="M871.685,966.244c-14.535-1.189-26.5-7.88-35.548-19.886a10.359,10.359,0,0,0-.7-.878.214.214,0,0,0,.074.035l.2-.676c.2.06.329.225.984,1.094,8.927,11.839,20.717,18.435,35.043,19.608Z" transform="translate(-835.44 -944.839)" fill="#83bb26"/>
            </g>
          </g>
        </g>
        <g id="Group_4575" data-name="Group 4575" transform="translate(24.451 76.18)">
          <g id="Group_4574" data-name="Group 4574">
            <g id="Group_4573" data-name="Group 4573">
              <path id="Path_14069" data-name="Path 14069" d="M864.16,948.055l-.687-.162c2.21-9.317-4.378-22.7-4.445-22.839l.631-.315a58.551,58.551,0,0,1,3.108,8.011C864.059,936.966,865.349,943.044,864.16,948.055Z" transform="translate(-859.028 -924.739)" fill="#83bb26"/>
            </g>
          </g>
        </g>
        <g id="Group_4578" data-name="Group 4578" transform="translate(2.498 26.68)">
          <g id="Group_4577" data-name="Group 4577">
            <g id="Group_4576" data-name="Group 4576">
              <path id="Path_14070" data-name="Path 14070" d="M821.284,819.161c3.837,3.247,4.213,5.117,3.27,6.232s-2.85,1.053-6.687-2.194c-6.99-5.915-8.658-10.793-8.658-10.793S814.193,813.16,821.284,819.161Z" transform="translate(-809.208 -812.406)" fill="#83bb26"/>
            </g>
          </g>
        </g>
        <g id="Group_4581" data-name="Group 4581" transform="translate(0 44.542)">
          <g id="Group_4580" data-name="Group 4580">
            <g id="Group_4579" data-name="Group 4579">
              <path id="Path_14071" data-name="Path 14071" d="M817.091,855.814c4.637,1.939,5.56,3.608,5,4.956s-2.4,1.864-7.038-.075c-8.447-3.532-11.51-7.68-11.51-7.68S808.52,852.23,817.091,855.814Z" transform="translate(-803.54 -852.942)" fill="#83bb26"/>
            </g>
          </g>
        </g>
        <g id="Group_4584" data-name="Group 4584" transform="translate(19.208 66.617)">
          <g id="Group_4583" data-name="Group 4583">
            <g id="Group_4582" data-name="Group 4582">
              <path id="Path_14072" data-name="Path 14072" d="M854.4,910.555c1.811,3.258,1.315,4.8.038,5.512s-2.851.316-4.662-2.941c-3.3-5.934-2.582-10.087-2.582-10.087S851.054,904.534,854.4,910.555Z" transform="translate(-847.13 -903.038)" fill="#83bb26"/>
            </g>
          </g>
        </g>
        <g id="Group_4587" data-name="Group 4587" transform="translate(25.435 32.478)">
          <g id="Group_4586" data-name="Group 4586">
            <g id="Group_4585" data-name="Group 4585">
              <path id="Path_14073" data-name="Path 14073" d="M867.167,834.607c.965,3.6.107,4.978-1.3,5.355s-2.842-.386-3.807-3.987c-1.756-6.559-.05-10.413-.05-10.413S865.384,827.953,867.167,834.607Z" transform="translate(-861.262 -825.563)" fill="#83bb26"/>
            </g>
          </g>
        </g>
        <g id="Group_4590" data-name="Group 4590" transform="translate(33.498 85.336)">
          <g id="Group_4589" data-name="Group 4589">
            <g id="Group_4588" data-name="Group 4588">
              <path id="Path_14074" data-name="Path 14074" d="M884.852,955.648c-.087,3.726-1.3,4.807-2.757,4.773s-2.619-1.17-2.532-4.9c.157-6.788,2.878-10.008,2.878-10.008S885.012,948.761,884.852,955.648Z" transform="translate(-879.559 -945.518)" fill="#83bb26"/>
            </g>
          </g>
        </g>
        <g id="Group_4593" data-name="Group 4593" transform="translate(9.27 80.024)">
          <g id="Group_4592" data-name="Group 4592">
            <g id="Group_4591" data-name="Group 4591">
              <path id="Path_14075" data-name="Path 14075" d="M833.225,939.264c2.467,2.794,2.313,4.41,1.218,5.376s-2.717.92-5.183-1.875c-4.493-5.09-4.682-9.3-4.682-9.3S828.666,934.1,833.225,939.264Z" transform="translate(-824.577 -933.464)" fill="#83bb26"/>
            </g>
          </g>
        </g>
        <g id="Group_4596" data-name="Group 4596" transform="translate(34.274)">
          <g id="Group_4595" data-name="Group 4595">
            <g id="Group_4594" data-name="Group 4594">
              <path id="Path_14076" data-name="Path 14076" d="M887.848,764.263c1.326,4.848.577,6.6-.832,6.988s-2.946-.745-4.271-5.594c-2.414-8.832-1.029-13.8-1.029-13.8S885.4,755.3,887.848,764.263Z" transform="translate(-881.32 -751.859)" fill="#83bb26"/>
            </g>
          </g>
        </g>
      </g>
    </g>
    <g id="Group_4676" data-name="Group 4676" transform="translate(406.967 386.717)" opacity="0.95">
      <g id="Group_4601" data-name="Group 4601" transform="translate(157.634 56.586)">
        <g id="Group_4600" data-name="Group 4600">
          <g id="Group_4599" data-name="Group 4599">
            <path id="Path_14077" data-name="Path 14077" d="M847.872,532.125a10.539,10.539,0,0,1-6.1-2.928,7.8,7.8,0,0,1-1.643-2.307l.414-.168c.017.041,1.76,4.149,7.392,4.961Z" transform="translate(-840.13 -526.722)" fill="#83bb26"/>
          </g>
        </g>
      </g>
      <g id="Group_4602" data-name="Group 4602" transform="translate(2.215 55.628)">
        <path id="Path_14078" data-name="Path 14078" d="M505.358,590.6H489.122l-1.695-64.16a20.346,20.346,0,0,1,6.341-1.556,82.559,82.559,0,0,1,9.984-.291Z" transform="translate(-487.427 -524.548)" fill="#94c358"/>
      </g>
      <g id="Group_4603" data-name="Group 4603" transform="translate(18.539 55.669)">
        <path id="Path_14079" data-name="Path 14079" d="M567.712,590.649H526.08l-1.607-66.008,43.239,1.847Z" transform="translate(-524.473 -524.641)" fill="#83bb26"/>
      </g>
      <g id="Group_4604" data-name="Group 4604" transform="translate(34.549 40.964)">
        <path id="Path_14080" data-name="Path 14080" d="M572.928,571.983H560.8V492.372a33.782,33.782,0,0,1,5.818-.972,70.862,70.862,0,0,1,8.344,0Z" transform="translate(-560.804 -491.27)" fill="#94c358"/>
      </g>
      <g id="Group_4605" data-name="Group 4605" transform="translate(46.673 41.094)">
        <path id="Path_14081" data-name="Path 14081" d="M619.409,572.148H588.318l2.038-80.583,29.053.972Z" transform="translate(-588.318 -491.565)" fill="#54a233"/>
      </g>
      <g id="Group_4606" data-name="Group 4606" transform="translate(53.946 61.227)">
        <path id="Path_14082" data-name="Path 14082" d="M626.625,597.7H617.5l-12.674-59.925a21.039,21.039,0,0,1,3.875-.508,20.638,20.638,0,0,1,5.252.508Z" transform="translate(-604.824 -537.254)" fill="#94c358"/>
      </g>
      <g id="Group_4607" data-name="Group 4607" transform="translate(63.073 61.751)">
        <path id="Path_14083" data-name="Path 14083" d="M661.613,598.369h-23.4l-12.674-59.925,23.206,3.312Z" transform="translate(-625.536 -538.444)" fill="#54a233"/>
      </g>
      <g id="Group_4608" data-name="Group 4608" transform="translate(2.378 63.836)">
        <path id="Path_14084" data-name="Path 14084" d="M487.906,545.286l-.11-.423a26.408,26.408,0,0,1,7.284-.678,37.11,37.11,0,0,0,8.826-1.01l.1.425a37.459,37.459,0,0,1-8.956,1.021A25.972,25.972,0,0,0,487.906,545.286Z" transform="translate(-487.796 -543.175)" fill="#83bb26"/>
      </g>
      <g id="Group_4609" data-name="Group 4609" transform="translate(34.517 47.387)">
        <path id="Path_14085" data-name="Path 14085" d="M560.795,506.831l-.064-.432c.084-.012,8.517-1.238,14.063,0l-.1.427C569.232,505.605,560.878,506.818,560.795,506.831Z" transform="translate(-560.731 -505.846)" fill="#83bb26"/>
      </g>
      <g id="Group_4610" data-name="Group 4610" transform="translate(34.529 50.781)">
        <path id="Path_14086" data-name="Path 14086" d="M574.566,515.4c-4.555-2.02-13.678-1.276-13.769-1.268l-.037-.436c.378-.031,9.326-.761,13.983,1.3Z" transform="translate(-560.76 -513.55)" fill="#83bb26"/>
      </g>
      <g id="Group_4611" data-name="Group 4611" transform="translate(34.514 110.686)">
        <path id="Path_14087" data-name="Path 14087" d="M560.793,650.518l-.068-.432c.34-.054,8.368-1.3,12.483.008l-.133.417C569.06,649.23,560.876,650.506,560.793,650.518Z" transform="translate(-560.725 -649.497)" fill="#83bb26"/>
      </g>
      <g id="Group_4612" data-name="Group 4612" transform="translate(34.52 113.01)">
        <path id="Path_14088" data-name="Path 14088" d="M560.795,655.655l-.057-.433c.078-.01,7.813-1.014,12.4,0l-.095.427C568.531,654.651,560.872,655.645,560.795,655.655Z" transform="translate(-560.738 -654.77)" fill="#83bb26"/>
      </g>
      <g id="Group_4614" data-name="Group 4614" transform="translate(55.312 67.651)">
        <g id="Group_4613" data-name="Group 4613">
          <path id="Path_14089" data-name="Path 14089" d="M608.014,552.818l-.091-.427c.24-.051,5.907-1.236,9.249.009l-.153.41C613.8,551.608,608.071,552.806,608.014,552.818Z" transform="translate(-607.923 -551.832)" fill="#54a233"/>
        </g>
      </g>
      <g id="Group_4616" data-name="Group 4616" transform="translate(55.706 69.612)">
        <g id="Group_4615" data-name="Group 4615">
          <path id="Path_14090" data-name="Path 14090" d="M608.894,557.138l-.076-.431c.22-.039,5.431-.937,9.194,0l-.106.425C614.235,556.218,608.947,557.128,608.894,557.138Z" transform="translate(-608.818 -556.283)" fill="#54a233"/>
        </g>
      </g>
      <g id="Group_4618" data-name="Group 4618" transform="translate(64.308 110.282)">
        <g id="Group_4617" data-name="Group 4617">
          <path id="Path_14091" data-name="Path 14091" d="M628.409,649.422l-.072-.431c.226-.037,5.588-.908,9.216,0l-.107.424C633.908,648.529,628.464,649.414,628.409,649.422Z" transform="translate(-628.338 -648.58)" fill="#54a233"/>
        </g>
      </g>
      <g id="Group_4620" data-name="Group 4620" transform="translate(64.799 112.565)">
        <g id="Group_4619" data-name="Group 4619">
          <path id="Path_14092" data-name="Path 14092" d="M638.567,654.635a23.811,23.811,0,0,0-9.019,0l-.1-.426a24.272,24.272,0,0,1,9.207,0Z" transform="translate(-629.452 -653.761)" fill="#54a233"/>
        </g>
      </g>
      <g id="Group_4674" data-name="Group 4674" transform="translate(98.014)">
        <g id="Group_4621" data-name="Group 4621" transform="translate(15.447 107.126)">
          <path id="Path_14093" data-name="Path 14093" d="M786.165,641.417s-.3.767-.942,2.036c-.02.032-.037.071-.054.106l0,.006a43.719,43.719,0,0,1-6.743,9.552,12.466,12.466,0,0,1-4.652,3h0l-.039.016c-.4.155-.814.3-1.238.432h0c-6.039,1.9-14.33,1.5-20.841-.574h0l-1.12-.381h0q-.836-.3-1.621-.639a14.8,14.8,0,0,1-4.168-2.662c-.142-.13-.279-.26-.413-.394a15.823,15.823,0,0,1-4.434-10.5h46.279Z" transform="translate(-739.886 -641.416)" fill="#94c358"/>
        </g>
        <g id="Group_4622" data-name="Group 4622" transform="translate(13.341 93.051)">
          <path id="Path_14094" data-name="Path 14094" d="M784.977,614.427v6.6c0,4.086-11.162,7.4-24.935,7.4s-24.935-3.311-24.935-7.4v-6.6c0-2.074,6.43-3.852,15.546-4.586,2.9-.236,6.068-.367,9.389-.367C773.815,609.475,784.977,611.69,784.977,614.427Z" transform="translate(-735.107 -609.475)" fill="#83bb26"/>
        </g>
        <g id="Group_4623" data-name="Group 4623" transform="translate(13.341 93.05)">
          <path id="Path_14095" data-name="Path 14095" d="M784.977,614.426a1.56,1.56,0,0,1-.68,1.155c-2.614,2.176-12.478,3.8-24.255,3.8-3.3,0-6.449-.128-9.328-.362-9.15-.734-15.606-2.512-15.606-4.594s6.43-3.852,15.546-4.586c2.9-.236,6.068-.367,9.389-.367C773.815,609.473,784.977,611.689,784.977,614.426Z" transform="translate(-735.107 -609.473)" fill="#54a233"/>
        </g>
        <g id="Group_4651" data-name="Group 4651" transform="translate(1.705)">
          <g id="Group_4624" data-name="Group 4624" transform="translate(33.732 23.444)">
            <path id="Path_14096" data-name="Path 14096" d="M789.593,457.651c-2.392,1.561-3.55,1.18-4.1.138s-.286-2.351,2.107-3.912c4.357-2.843,7.46-2.331,7.46-2.331S794.013,454.766,789.593,457.651Z" transform="translate(-785.251 -451.51)" fill="#83bb26"/>
          </g>
          <g id="Group_4625" data-name="Group 4625" transform="translate(33.535 41.819)">
            <path id="Path_14097" data-name="Path 14097" d="M789.223,500.953c-1.809,2.337-3.015,2.394-3.839,1.606s-.954-2.122.855-4.459c3.3-4.258,6.38-4.889,6.38-4.889S792.566,496.634,789.223,500.953Z" transform="translate(-784.805 -493.211)" fill="#83bb26"/>
          </g>
          <g id="Group_4650" data-name="Group 4650">
            <g id="Group_4627" data-name="Group 4627" transform="translate(11.453 29.987)">
              <g id="Group_4626" data-name="Group 4626">
                <path id="Path_14098" data-name="Path 14098" d="M760.087,537.926l-.523-.051c.007-.089.667-9.115-2.062-22.336a118.3,118.3,0,0,0-22.809-48.8l.4-.384a118.9,118.9,0,0,1,22.93,49.076C760.762,528.738,760.095,537.836,760.087,537.926Z" transform="translate(-734.693 -466.359)" fill="#83bb26"/>
              </g>
            </g>
            <g id="Group_4629" data-name="Group 4629" transform="translate(25.478 12.778)">
              <g id="Group_4628" data-name="Group 4628">
                <path id="Path_14099" data-name="Path 14099" d="M766.962,467.532l-.442-.315c10.282-17.845,4.086-39.512,4.022-39.729l.5-.181C771.106,427.526,777.381,449.45,766.962,467.532Z" transform="translate(-766.52 -427.307)" fill="#83bb26"/>
              </g>
            </g>
            <g id="Group_4631" data-name="Group 4631" transform="translate(8.606 40.05)">
              <g id="Group_4630" data-name="Group 4630">
                <path id="Path_14100" data-name="Path 14100" d="M737.639,492.682a17.346,17.346,0,0,1-9.408-3l.293-.484c.051.038,5.216,3.832,11.52,2.688l.085.576A13.91,13.91,0,0,1,737.639,492.682Z" transform="translate(-728.231 -489.196)" fill="#83bb26"/>
              </g>
            </g>
            <g id="Group_4633" data-name="Group 4633" transform="translate(9.49 69.772)">
              <g id="Group_4632" data-name="Group 4632">
                <path id="Path_14101" data-name="Path 14101" d="M756.71,575.282c-10.784-1.363-19.523-7.207-25.975-17.37a8.687,8.687,0,0,0-.5-.744.161.161,0,0,0,.054.03l.166-.553c.147.054.239.194.706.931,6.362,10.02,14.976,15.782,25.6,17.125Z" transform="translate(-730.238 -556.646)" fill="#83bb26"/>
              </g>
            </g>
            <g id="Group_4635" data-name="Group 4635" transform="translate(17.438 62.731)">
              <g id="Group_4634" data-name="Group 4634">
                <path id="Path_14102" data-name="Path 14102" d="M751.551,560.06l-.507-.152c1.863-7.644-2.723-18.885-2.77-19l.477-.244a51.962,51.962,0,0,1,2.124,6.7C751.736,550.89,752.553,555.949,751.551,560.06Z" transform="translate(-748.274 -540.667)" fill="#83bb26"/>
              </g>
            </g>
            <g id="Group_4637" data-name="Group 4637" transform="translate(2.279 21.216)">
              <g id="Group_4636" data-name="Group 4636">
                <path id="Path_14103" data-name="Path 14103" d="M722.7,452.356c2.778,2.785,3.013,4.34,2.285,5.238s-2.145.8-4.923-1.989c-5.06-5.073-6.187-9.149-6.187-9.149S717.563,447.21,722.7,452.356Z" transform="translate(-713.873 -446.456)" fill="#83bb26"/>
              </g>
            </g>
            <g id="Group_4639" data-name="Group 4639" transform="translate(0 35.947)">
              <g id="Group_4638" data-name="Group 4638">
                <path id="Path_14104" data-name="Path 14104" d="M718.715,482.586c3.4,1.724,4.051,3.129,3.6,4.228s-1.829,1.478-5.233-.246c-6.2-3.141-8.381-6.65-8.381-6.65S712.424,479.4,718.715,482.586Z" transform="translate(-708.701 -479.886)" fill="#83bb26"/>
              </g>
            </g>
            <g id="Group_4641" data-name="Group 4641" transform="translate(13.74 54.672)">
              <g id="Group_4640" data-name="Group 4640">
                <path id="Path_14105" data-name="Path 14105" d="M745.145,528.783c1.27,2.74.865,4-.1,4.558s-2.128.187-3.4-2.554c-2.314-4.992-1.684-8.408-1.684-8.408S742.8,523.718,745.145,528.783Z" transform="translate(-739.883 -522.38)" fill="#83bb26"/>
              </g>
            </g>
            <g id="Group_4643" data-name="Group 4643" transform="translate(19.087 26.629)">
              <g id="Group_4642" data-name="Group 4642">
                <path id="Path_14106" data-name="Path 14106" d="M756.313,466.351c.633,3-.037,4.118-1.1,4.394s-2.1-.394-2.738-3.4c-1.152-5.468.207-8.61.207-8.61S755.144,460.8,756.313,466.351Z" transform="translate(-752.016 -458.739)" fill="#83bb26"/>
              </g>
            </g>
            <g id="Group_4645" data-name="Group 4645" transform="translate(23.71 70.595)">
              <g id="Group_4644" data-name="Group 4644">
                <path id="Path_14107" data-name="Path 14107" d="M766.457,566.952c-.152,3.078-1.077,3.941-2.163,3.874s-1.92-1.035-1.768-4.114c.277-5.608,2.376-8.2,2.376-8.2S766.737,561.263,766.457,566.952Z" transform="translate(-762.507 -558.514)" fill="#83bb26"/>
              </g>
            </g>
            <g id="Group_4647" data-name="Group 4647" transform="translate(6.063 65.496)">
              <g id="Group_4646" data-name="Group 4646">
                <path id="Path_14108" data-name="Path 14108" d="M728.756,551.963c1.769,2.374,1.617,3.706.78,4.476s-2.043.69-3.812-1.686c-3.223-4.326-3.264-7.812-3.264-7.812S725.487,547.574,728.756,551.963Z" transform="translate(-722.46 -546.942)" fill="#83bb26"/>
              </g>
            </g>
            <g id="Group_4649" data-name="Group 4649" transform="translate(26.436)">
              <g id="Group_4648" data-name="Group 4648">
                <path id="Path_14109" data-name="Path 14109" d="M773.364,408.723c.872,4.043.274,5.474-.783,5.756s-2.174-.693-3.045-4.736c-1.588-7.365-.441-11.435-.441-11.435S771.753,401.25,773.364,408.723Z" transform="translate(-768.694 -398.308)" fill="#83bb26"/>
              </g>
            </g>
          </g>
        </g>
        <g id="Group_4652" data-name="Group 4652" transform="translate(8.02 50.031)">
          <path id="Path_14110" data-name="Path 14110" d="M753.942,564.15s-13.676-56.729-27.386-52.026,16.742,35.757,20.252,52.411Z" transform="translate(-723.03 -511.846)" fill="#54a233"/>
        </g>
        <g id="Group_4656" data-name="Group 4656" transform="translate(0 60.359)">
          <g id="Group_4653" data-name="Group 4653">
            <path id="Path_14111" data-name="Path 14111" d="M741.754,574.7s-20.925-45.521-33.983-38.722,21.283,27.037,26.923,40.5Z" transform="translate(-704.831 -535.284)" fill="#83bb26"/>
          </g>
          <g id="Group_4655" data-name="Group 4655" transform="translate(6.673 6.26)">
            <g id="Group_4654" data-name="Group 4654">
              <path id="Path_14112" data-name="Path 14112" d="M746.187,583.728c-7.154-17.925-26.023-33.562-26.213-33.719l.344-.518c.191.157,19.182,15.893,26.4,33.975Z" transform="translate(-719.974 -549.491)" fill="#83bb26"/>
            </g>
          </g>
        </g>
        <g id="Group_4658" data-name="Group 4658" transform="translate(28.127 46.88)">
          <g id="Group_4657" data-name="Group 4657">
            <path id="Path_14113" data-name="Path 14113" d="M817.118,525.4c-4.9,7,3.676,16.143-4.547,20.618s-7.969,3.008-8.769,9.349a1.814,1.814,0,0,1-.736,1.605c-2.615,2.177-12.479,3.8-24.255,3.8-3.3,0-6.448-.126-9.328-.361a13.778,13.778,0,0,1-.06-9.18,14.866,14.866,0,0,1,2.377-4.244c6.124-7.776,11.026-6.224,9.626-20.614s16.1-8.17,20.471-13.031,7.351-10.309,15.221-8.17S822.02,518.4,817.118,525.4Z" transform="translate(-768.661 -504.697)" fill="#94c358"/>
          </g>
        </g>
        <g id="Group_4673" data-name="Group 4673" transform="translate(40.732 48.588)">
          <g id="Group_4660" data-name="Group 4660" transform="translate(0.693)">
            <g id="Group_4659" data-name="Group 4659">
              <path id="Path_14114" data-name="Path 14114" d="M799.344,563.461l-.5-.162c.064-.248,6.782-25.063,37.2-54.726l.346.438C806.081,538.563,799.408,563.215,799.344,563.461Z" transform="translate(-798.839 -508.572)" fill="#83bb26"/>
            </g>
          </g>
          <g id="Group_4662" data-name="Group 4662" transform="translate(0 20.176)">
            <g id="Group_4661" data-name="Group 4661">
              <path id="Path_14115" data-name="Path 14115" d="M807.739,557.8c-7.174-.286-10.341-2.866-10.471-2.976l.315-.467c.031.026,3.185,2.58,10.176,2.859Z" transform="translate(-797.267 -554.36)" fill="#83bb26"/>
            </g>
          </g>
          <g id="Group_4664" data-name="Group 4664" transform="translate(6.534 10.599)">
            <g id="Group_4663" data-name="Group 4663">
              <path id="Path_14116" data-name="Path 14116" d="M820.377,549.812c-2.845-1.183-5.18-4.529-6.752-9.677a42.805,42.805,0,0,1-1.529-7.45l.522-.061c.013.139,1.4,13.922,7.943,16.641Z" transform="translate(-812.096 -532.624)" fill="#83bb26"/>
            </g>
          </g>
          <g id="Group_4666" data-name="Group 4666" transform="translate(21.059 11.931)">
            <g id="Group_4665" data-name="Group 4665">
              <path id="Path_14117" data-name="Path 14117" d="M846.392,543.131c-.828,0-1.313-.049-1.335-.052l.053-.581a24.432,24.432,0,0,0,18.3-6.85l.348.436A24.989,24.989,0,0,1,846.392,543.131Z" transform="translate(-845.057 -535.648)" fill="#83bb26"/>
            </g>
          </g>
          <g id="Group_4668" data-name="Group 4668" transform="translate(25.112 18.962)">
            <g id="Group_4667" data-name="Group 4667">
              <path id="Path_14118" data-name="Path 14118" d="M863.351,558.659a11.972,11.972,0,0,1-7.165-3.824,10.3,10.3,0,0,1-1.93-3.012l.486-.22a11.2,11.2,0,0,0,8.685,6.479Z" transform="translate(-854.255 -551.603)" fill="#83bb26"/>
            </g>
          </g>
          <g id="Group_4670" data-name="Group 4670" transform="translate(6.404 41.175)">
            <g id="Group_4669" data-name="Group 4669">
              <path id="Path_14119" data-name="Path 14119" d="M825.35,607.856c-7.818,0-13.488-5.339-13.551-5.4l.343-.443c.07.067,7.092,6.67,16.21,4.984l.086.576A16.969,16.969,0,0,1,825.35,607.856Z" transform="translate(-811.799 -602.013)" fill="#83bb26"/>
            </g>
          </g>
          <g id="Group_4672" data-name="Group 4672" transform="translate(11.749 35.035)">
            <g id="Group_4671" data-name="Group 4671">
              <path id="Path_14120" data-name="Path 14120" d="M824.375,598.1l-.446-.309c1.56-2.776,5.2-6.5,13.663-8.506a46.807,46.807,0,0,1,9.518-1.206v.584C846.936,588.663,829.611,588.78,824.375,598.1Z" transform="translate(-823.93 -588.079)" fill="#83bb26"/>
            </g>
          </g>
        </g>
      </g>
      <g id="Group_4675" data-name="Group 4675" transform="translate(0 120.67)">
        <path id="Path_14121" data-name="Path 14121" d="M661.794,680.9,482.4,682.668V672.154H660.2Z" transform="translate(-482.4 -672.154)" fill="#83bb26"/>
      </g>
    </g>
    <g id="Group_4682" data-name="Group 4682" transform="translate(650.575 377.586)">
      <g id="Group_4677" data-name="Group 4677" transform="translate(0.004 38.556)">
        <path id="Path_14122" data-name="Path 14122" d="M1142.965,502.133c0,3.193-24.137,5.779-53.914,5.779s-53.8,4.614-53.8,1.422c0-22.826,24.028-44.249,53.8-44.249S1142.965,481.671,1142.965,502.133Z" transform="translate(-1035.246 -465.085)" fill="#94c358"/>
      </g>
      <g id="Group_4678" data-name="Group 4678" transform="translate(0 72.655)">
        <path id="Path_14123" data-name="Path 14123" d="M1142.85,545.739c.139,2.228-11.5,4.912-28.668,6.98q-1.484.175-3.029.35c-6.635.739-13.992,1.384-21.739,1.879-6.58.422-12.886.695-18.727.833q-3.176.084-6.152.106c-17.271.139-29.152-1.039-29.3-3.267-.122-1.923,8.53-4.185,21.939-6.091q1.6-.225,3.289-.45c5.674-.745,12.064-1.423,18.911-1.984,3.023-.25,6.124-.484,9.3-.684,2.212-.145,4.4-.267,6.541-.372,9.063-.461,17.454-.639,24.579-.55.172,0,.339.006.505.006C1133.848,542.678,1142.722,543.823,1142.85,545.739Z" transform="translate(-1035.238 -542.467)" fill="#54a233"/>
      </g>
      <g id="Group_4679" data-name="Group 4679" transform="translate(25.231 72.655)">
        <path id="Path_14124" data-name="Path 14124" d="M1151.823,542.489a34.8,34.8,0,0,1-59.327,3.59c5.674-.745,12.064-1.422,18.911-1.984,3.023-.25,6.124-.483,9.3-.684,2.212-.144,4.4-.266,6.541-.372C1136.307,542.578,1144.7,542.4,1151.823,542.489Z" transform="translate(-1092.496 -542.467)" fill="#ff8321"/>
      </g>
      <g id="Group_4680" data-name="Group 4680" transform="translate(51.489)">
        <path id="Path_14125" data-name="Path 14125" d="M1154.4,419.97h0a2.315,2.315,0,0,1-2.315-2.315V379.9a2.315,2.315,0,0,1,2.315-2.315h0a2.315,2.315,0,0,1,2.315,2.315v37.754A2.311,2.311,0,0,1,1154.4,419.97Z" transform="translate(-1152.086 -377.586)" fill="#94c358"/>
      </g>
      <g id="Group_4681" data-name="Group 4681" transform="translate(47.093 32.847)">
        <circle id="Ellipse_1851" data-name="Ellipse 1851" cx="6.712" cy="6.712" r="6.712" fill="#94c358"/>
      </g>
    </g>
    <g id="Group_4697" data-name="Group 4697" transform="translate(952.479 789.542)">
      <g id="Group_4695" data-name="Group 4695" transform="translate(0.003 0.451)">
        <g id="Group_4694" data-name="Group 4694">
          <path id="Path_14134" data-name="Path 14134" d="M1732.766,1353.145h0c1.514-.021,2.6-2.292,2.222-4.383l-6.391-35.271h-8.218l10.182,37.394C1730.937,1352.268,1731.8,1353.158,1732.766,1353.145Z" transform="translate(-1720.378 -1313.491)" fill="#002b34"/>
        </g>
      </g>
      <g id="Group_4696" data-name="Group 4696" transform="translate(0)">
        <path id="Path_14135" data-name="Path 14135" d="M1728.778,1313.962a8.009,8.009,0,0,0-7.236,3.257l-1.171-4.3,8.174-.45Z" transform="translate(-1720.371 -1312.467)" fill="#002b34"/>
      </g>
    </g>
    <g id="Group_4698" data-name="Group 4698" transform="translate(464.574 616.511)">
      <path id="Path_14136" data-name="Path 14136" d="M1140.1,919.838l-39.461,119.3-4.009,12.114-161.486,25.243-5.43-.2a5.682,5.682,0,0,1,.112,1.109v13.435a5.779,5.779,0,0,1-5.777,5.777H621.771a5.774,5.774,0,0,1-5.771-5.777s-16.058-48.586,27.83-63.571,92.457,14.195,119.538,5.524c3.891-1.25,6.591-4.462,8.612-9.06,12.061-27.37.265-103.663,75.5-103.928Z" transform="translate(-613.132 -919.797)" fill="#94c358"/>
    </g>
    <g id="Group_4700" data-name="Group 4700" transform="translate(478.906 792.861)">
      <g id="Group_4699" data-name="Group 4699">
        <path id="Path_14137" data-name="Path 14137" d="M647.959,1359.284h0c-1.517-.02-2.6-2.292-2.225-4.383l6.256-34.9h8.481l-9.081,36.854C651.022,1359.284,648.92,1359.3,647.959,1359.284Z" transform="translate(-645.658 -1320)" fill="#002b34"/>
      </g>
    </g>
    <g id="Group_4701" data-name="Group 4701" transform="translate(623.42 616.511)">
      <path id="Path_14138" data-name="Path 14138" d="M1341.736,919.838l-39.461,119.3-30.4,10.081-76.033-25.732s-133.526.277-222.228.242c12.061-27.37.265-103.663,75.5-103.929Z" transform="translate(-973.614 -919.796)" fill="#94c358"/>
    </g>
    <g id="Group_4702" data-name="Group 4702" transform="translate(775.237 616.509)">
      <path id="Path_14139" data-name="Path 14139" d="M1551.483,939.919l-32.91,144.847a17.393,17.393,0,0,1-17.124,13.539l-181.024-1.7s-14.469-54.362,29.424-69.347,92.455,14.2,119.538,5.521c23.794-7.622,5.667-91.464,60.491-111.93A16.324,16.324,0,0,1,1551.483,939.919Z" transform="translate(-1318.141 -919.791)" fill="#54a233"/>
    </g>
    <g id="Group_4703" data-name="Group 4703" transform="translate(596.065 600.331)">
      <path id="Path_14140" data-name="Path 14140" d="M931.941,883.078c-2.211,3.9-24.416,37.964-19.768,71.279L936.34,945.7,947.383,900.8Z" transform="translate(-911.536 -883.078)" fill="#ffad97"/>
    </g>
    <g id="Group_4704" data-name="Group 4704" transform="translate(613.412 566.015)">
      <path id="Path_14141" data-name="Path 14141" d="M1050.461,825.558s-14.848-26.374-50.991-19.082S943.6,865,953.4,966.477c0,0,57.419-22.608,132.079-4.383C1085.484,962.094,1073.194,863.818,1050.461,825.558Z" transform="translate(-950.9 -805.201)" fill="#ff4929"/>
    </g>
    <g id="Group_4705" data-name="Group 4705" transform="translate(606.703 564.783)">
      <path id="Path_14142" data-name="Path 14142" d="M1069.512,813.338l-25.406,25.117s-65.13,17.427-83.22,17.218-25.21-13.3-25.21-13.3,15.268-23.946,46.161-34.776a90.734,90.734,0,0,1,9.115-2.68,93.854,93.854,0,0,1,16.138-2.317C1039.071,800.713,1069.512,813.338,1069.512,813.338Z" transform="translate(-935.675 -802.406)" fill="#ff4929"/>
    </g>
    <g id="Group_4706" data-name="Group 4706" transform="translate(714.662 575.206)">
      <path id="Path_14143" data-name="Path 14143" d="M1206.552,826.568c4.061,4.372-2.2,9.147-9.218,16.083s-14.262,10.981-16.187,9.034,2.2-9.147,9.217-16.083S1204.688,824.563,1206.552,826.568Z" transform="translate(-1180.675 -826.059)" fill="#002b34"/>
    </g>
    <g id="Group_4707" data-name="Group 4707" transform="translate(718.507 581.436)">
      <path id="Path_14144" data-name="Path 14144" d="M1189.4,859.7s-.378-5.016,5.989-11.421a38.685,38.685,0,0,1,11.944-7.774,3.724,3.724,0,0,1,4.939,2.064l2.037,5.2-9.484,6.047Z" transform="translate(-1189.4 -840.197)" fill="#ffad97"/>
    </g>
    <g id="Group_4708" data-name="Group 4708" transform="translate(644.57 676.359)">
      <path id="Path_14145" data-name="Path 14145" d="M1050.663,1073.224s78.375-42.063,106.468,3.822c20.8,33.966-10.464,65.6-126.413,62.386,0,0-11.459-5.316-8.669-32.887C1023.153,1095.618,1050.663,1073.224,1050.663,1073.224Z" transform="translate(-1021.611 -1055.612)" fill="#00613e"/>
    </g>
    <g id="Group_4709" data-name="Group 4709" transform="translate(540.079 669.391)">
      <path id="Path_14146" data-name="Path 14146" d="M918.024,1064.379s-104.385-42.347-125.039-15.874c-23.737,30.424-.974,82.083,109.057,63.617l13.409-14.421Z" transform="translate(-784.482 -1039.8)" fill="#00613e"/>
    </g>
    <g id="Group_4710" data-name="Group 4710" transform="translate(644.148 698.522)">
      <path id="Path_14147" data-name="Path 14147" d="M1030.055,1167.742c-12.874-9.1-8.8-32.865-8.758-33.1l.022-.124.118-.043,79.239-28.561.148.412-79.118,28.517c-.3,1.864-3.57,23.946,8.6,32.546Z" transform="translate(-1020.652 -1105.91)" fill="#002b34"/>
    </g>
    <g id="Group_4711" data-name="Group 4711" transform="translate(611.637 734.876)">
      <path id="Path_14148" data-name="Path 14148" d="M979.576,1188.41s-19.238.774-28.274,5.163-4.211,15.1,14.137,14.816,16.955-2.99,16.955-2.99S978.911,1195.994,979.576,1188.41Z" transform="translate(-946.872 -1188.41)" fill="#002b34"/>
    </g>
    <g id="Group_4713" data-name="Group 4713" transform="translate(644.427 584.935)">
      <g id="Group_4712" data-name="Group 4712" transform="translate(0 0)">
        <path id="Path_14149" data-name="Path 14149" d="M1045.823,959.187c-6.371,0-11.6-1.6-15.849-4.766-8.015-5.987-9.5-15.532-8.34-21.886l7.668-4.415c.381-2.084,15.178,5.659,15.153,5.65.067.023,7.062,2.027,31.313-10.247,16.882-8.545,25.39-20.67,26.011-37.07.469-12.364-5.1-19.309-6.411-22.319-.175-.4,8.159-8.675,7.92-9.517l6.248-3.144c-.2-.709,6.006-3.135,5.918-3.337l4.821,4.067a78.978,78.978,0,0,1,6.787,35.207c-.678,17.911-8.146,42.633-39.87,58.688C1069.9,954.856,1056.319,959.187,1045.823,959.187Z" transform="translate(-1021.285 -848.138)" fill="#ffad97"/>
      </g>
    </g>
    <g id="Group_4720" data-name="Group 4720" transform="translate(574.589 648.739)">
      <g id="Group_4714" data-name="Group 4714" transform="translate(4.246 0.214)">
        <path id="Path_14150" data-name="Path 14150" d="M957.42,1041.458H889.78a3.285,3.285,0,0,1-3.12-2.213L872.6,997.672a3.243,3.243,0,0,1,3.12-4.255h65.047a6.873,6.873,0,0,1,6.53,4.633L960.54,1037.2A3.244,3.244,0,0,1,957.42,1041.458Z" transform="translate(-872.433 -993.418)" fill="#002b34"/>
      </g>
      <g id="Group_4715" data-name="Group 4715" transform="translate(0 0.214)">
        <path id="Path_14151" data-name="Path 14151" d="M947.782,1041.458H880.144a3.284,3.284,0,0,1-3.12-2.213l-14.056-41.573a3.243,3.243,0,0,1,3.12-4.255h65.047a6.874,6.874,0,0,1,6.531,4.633L950.9,1037.2A3.244,3.244,0,0,1,947.782,1041.458Z" transform="translate(-862.797 -993.418)" fill="#002b34"/>
      </g>
      <g id="Group_4716" data-name="Group 4716" transform="translate(37.592 20.652)">
        <path id="Path_14152" data-name="Path 14152" d="M948.108,1042.02c0-1.578,1.839-2.222,3.444-2.222s4.225,1.732,4.208,3.944c-.018,2.386-1.9,2.7-3.506,2.7S948.108,1044.029,948.108,1042.02Z" transform="translate(-948.108 -1039.798)" fill="#deebe9"/>
      </g>
      <g id="Group_4717" data-name="Group 4717" transform="translate(17.313 42.376)">
        <path id="Path_14153" data-name="Path 14153" d="M994.664,1089.1H902.086v5.875h94.494a1.979,1.979,0,0,0,1.98-1.979h0A3.9,3.9,0,0,0,994.664,1089.1Z" transform="translate(-902.086 -1089.1)" fill="#002b34"/>
      </g>
      <g id="Group_4718" data-name="Group 4718" transform="translate(69.923)">
        <path id="Path_14154" data-name="Path 14154" d="M1031.733,1014.162c-.034-.124-3.352-12.449-5.5-16.279-2.118-3.775-4.728-4.522-4.754-4.53l.115-.422c.114.031,2.814.8,5.021,4.737,2.175,3.877,5.4,15.87,5.54,16.378Z" transform="translate(-1021.479 -992.932)" fill="#deebe9"/>
      </g>
      <g id="Group_4719" data-name="Group 4719" transform="translate(81.73 25.686)">
        <path id="Path_14155" data-name="Path 14155" d="M1056.714,1068.134c-2.506,0-3.13-1.1-3.155-1.145l-.015-.033-5.272-15.592.415-.14,5.264,15.569c.07.1.682.905,2.764.905Z" transform="translate(-1048.272 -1051.224)" fill="#deebe9"/>
      </g>
    </g>
    <g id="Group_4721" data-name="Group 4721" transform="translate(727.476 648.793)">
      <path id="Path_14156" data-name="Path 14156" d="M1212.048,1004.21a2.135,2.135,0,0,1-1.081-.279c-1.656-.956-1.61-4.032.105-7a9.283,9.283,0,0,1,2.906-3.194,2.981,2.981,0,0,1,3.106-.4c1.656.956,1.61,4.032-.105,7C1215.6,1002.721,1213.63,1004.21,1212.048,1004.21ZM1216,993.931a3.016,3.016,0,0,0-1.552.541,8.394,8.394,0,0,0-2.617,2.892c-1.421,2.461-1.616,5.121-.425,5.809s3.4-.812,4.818-3.273,1.615-5.121.425-5.808A1.279,1.279,0,0,0,1216,993.931Z" transform="translate(-1209.754 -993.055)" fill="#f47c53"/>
    </g>
    <g id="Group_4722" data-name="Group 4722" transform="translate(644.55 533.678)">
      <path id="Path_14157" data-name="Path 14157" d="M1055.692,763.052c-4.444-.129-7.815-.582-10.371-3.56l-7.911-9.215-2.3-2.684-13.541-15.776,7.111,18.447,4.27,11.072,1.351,3.5c.917,2.379-.294,3.488-1.148,6.271-.346,1.127-2.679,8.067,3.4,8.11,7.574.055,17.154-8.664,19.258-16.193A.532.532,0,0,1,1055.692,763.052Z" transform="translate(-1021.566 -731.817)" fill="#ffad97"/>
    </g>
    <g id="Group_4723" data-name="Group 4723" transform="translate(658.151 517.309)">
      <path id="Path_14158" data-name="Path 14158" d="M1056.872,723.576s14.91-14.191,6.308-26.169-10.75,19.224-10.75,19.224l2.4,7.213Z" transform="translate(-1052.43 -694.669)" fill="#002b34"/>
    </g>
    <g id="Group_4724" data-name="Group 4724" transform="translate(651.662 549.416)">
      <path id="Path_14159" data-name="Path 14159" d="M1046.361,769.935c.028.105.053.211.074.319,1.384,6.222-4.411,11.082-4.411,11.082l-.051-.022-4.269-11.072c1.814-1.346,4.485-2.973,6.429-2.672A2.762,2.762,0,0,1,1046.361,769.935Z" transform="translate(-1037.704 -767.533)" fill="#002b34"/>
    </g>
    <g id="Group_4725" data-name="Group 4725" transform="translate(622.673 513.907)">
      <ellipse id="Ellipse_1852" data-name="Ellipse 1852" cx="17.402" cy="20.983" rx="17.402" ry="20.983" transform="translate(45.481 40.162) rotate(163.136)" fill="#ffad97"/>
    </g>
    <g id="Group_4726" data-name="Group 4726" transform="translate(613.594 508.211)">
      <path id="Path_14160" data-name="Path 14160" d="M996.633,698.221s-4.748,3.419-8.727.53-6.794-5.631-15.705-1.189-18.666,2.447-20.467-2.554,2.443-8.832,8.041-8.583-1.184-2.791,2.709-8.048,13.77.159,18.666-2.447,22.337-4.87,25.474,9.929Z" transform="translate(-951.313 -674.024)" fill="#002b34"/>
    </g>
    <g id="Group_4727" data-name="Group 4727" transform="translate(654.899 528.467)">
      <ellipse id="Ellipse_1853" data-name="Ellipse 1853" cx="3.383" cy="3.786" rx="3.383" ry="3.786" transform="translate(4.145 0) rotate(33.191)" fill="#ffad97"/>
    </g>
    <g id="Group_4728" data-name="Group 4728" transform="translate(620.452 522.25)">
      <path id="Path_14161" data-name="Path 14161" d="M970.282,711.1a3.91,3.91,0,0,1-.957-.112c-2-.5-2.567-1.544-2.426-2.349.163-.927,1.3-1.814,3.081-1.634a7,7,0,0,0,4.126-.626l.347.549a7.46,7.46,0,0,1-4.537.723c-1.325-.134-2.266.466-2.376,1.1-.116.661.629,1.277,1.945,1.607,3.431.859,9.36-4.42,9.419-4.474l.434.483C979.1,706.574,974.024,711.1,970.282,711.1Z" transform="translate(-966.878 -705.882)" fill="#fff"/>
    </g>
    <g id="Group_4729" data-name="Group 4729" transform="translate(632.102 509.671)">
      <path id="Path_14162" data-name="Path 14162" d="M1000.46,682.741a14.368,14.368,0,0,1-7.145-1.873l.489-.427-.244.214.229-.231c.332.277,5.635,2.818,10.169,1.059a39.738,39.738,0,0,0,4.134-1.959c2.636-1.381,4.913-2.571,7.512-2.071l-.123.637c-2.377-.459-4.56.685-7.088,2.008a40.246,40.246,0,0,1-4.2,1.989A10.277,10.277,0,0,1,1000.46,682.741Z" transform="translate(-993.315 -677.337)" fill="#fff"/>
    </g>
    <g id="Group_4730" data-name="Group 4730" transform="translate(661.063 515.6)">
      <path id="Path_14163" data-name="Path 14163" d="M1062.375,694.469c-.958,0-2.731-1.48-3.193-2.415-.339-.686.01-1,.177-1.1,1.3-.813,3.192,1.729,3.557,2.247l.033.047.015.056c.212.79-.122,1.046-.341,1.128A.719.719,0,0,1,1062.375,694.469Zm-2.454-3.026a.408.408,0,0,0-.219.058c-.03.058.03.41.691,1.073a3.8,3.8,0,0,0,2,1.249,1.184,1.184,0,0,0-.038-.3C1061.688,692.6,1060.564,691.442,1059.921,691.442Z" transform="translate(-1059.04 -690.791)" fill="#fff"/>
    </g>
    <g id="Group_4731" data-name="Group 4731" transform="translate(759.659 705.859)">
      <path id="Path_14164" data-name="Path 14164" d="M1290.259,1140.957a7.276,7.276,0,0,1-3.666-.973,7.639,7.639,0,0,1-3.643-5.345,10.25,10.25,0,0,1,1.285-6.988c2.62-4.537,7.941-6.389,11.861-4.125s4.978,7.8,2.358,12.334a10.255,10.255,0,0,1-5.41,4.607A8.386,8.386,0,0,1,1290.259,1140.957Zm2.172-17.525a8.878,8.878,0,0,0-7.439,4.655,9.383,9.383,0,0,0-1.182,6.391,6.58,6.58,0,0,0,8.945,5.164,9.382,9.382,0,0,0,4.943-4.219c2.379-4.12,1.464-9.117-2.038-11.14A6.462,6.462,0,0,0,1292.431,1123.433Z" transform="translate(-1282.79 -1122.56)" fill="#002b34"/>
    </g>
    <g id="Group_4794" data-name="Group 4794" transform="translate(812.549 715.058)">
      <g id="Group_4732" data-name="Group 4732" transform="translate(29.031 181.146)">
        <path id="Path_14165" data-name="Path 14165" d="M1536.429,1402.18s-.556,1.3-1.77,3.443c-.036.055-.069.119-.1.179l-.009.009a74.343,74.343,0,0,1-12.673,16.153,23.849,23.849,0,0,1-8.744,5.075h0l-.074.028c-.754.262-1.531.51-2.326.731h-.005c-11.349,3.218-26.933,2.528-39.169-.97h0l-2.105-.643h0q-1.572-.51-3.048-1.08a28.372,28.372,0,0,1-7.833-4.5c-.266-.22-.524-.441-.777-.666a25.247,25.247,0,0,1-8.334-17.757h86.98Z" transform="translate(-1449.448 -1402.18)" fill="#94c358"/>
      </g>
      <g id="Group_4733" data-name="Group 4733" transform="translate(25.073 157.343)">
        <path id="Path_14166" data-name="Path 14166" d="M1534.195,1356.538V1367.7c0,6.909-20.98,12.508-46.864,12.508s-46.864-5.6-46.864-12.508v-11.165c0-3.508,12.085-6.514,29.217-7.755,5.447-.4,11.4-.62,17.647-.62C1513.215,1348.166,1534.195,1351.912,1534.195,1356.538Z" transform="translate(-1440.467 -1348.163)" fill="#015700"/>
      </g>
      <g id="Group_4734" data-name="Group 4734" transform="translate(25.073 157.343)">
        <path id="Path_14167" data-name="Path 14167" d="M1534.195,1356.538a2.593,2.593,0,0,1-1.278,1.953c-4.914,3.677-23.453,6.426-45.585,6.426-6.2,0-12.122-.217-17.532-.611-17.2-1.241-29.332-4.248-29.332-7.769s12.085-6.514,29.217-7.755c5.447-.4,11.4-.62,17.647-.62C1513.215,1348.165,1534.195,1351.911,1534.195,1356.538Z" transform="translate(-1440.467 -1348.162)" fill="#002b34"/>
      </g>
      <g id="Group_4762" data-name="Group 4762" transform="translate(3.205)">
        <g id="Group_4735" data-name="Group 4735" transform="translate(63.397 39.643)">
          <path id="Path_14168" data-name="Path 14168" d="M1542.871,1091.44c-4.5,2.64-6.672,2-7.706.234s-.536-3.976,3.96-6.615c8.19-4.808,14.021-3.941,14.021-3.941S1551.182,1086.562,1542.871,1091.44Z" transform="translate(-1534.71 -1081.057)" fill="#002b34"/>
        </g>
        <g id="Group_4736" data-name="Group 4736" transform="translate(63.028 70.714)">
          <path id="Path_14169" data-name="Path 14169" d="M1542.178,1164.662c-3.4,3.952-5.666,4.047-7.216,2.714s-1.793-3.588,1.607-7.54c6.193-7.2,11.991-8.266,11.991-8.266S1548.462,1157.356,1542.178,1164.662Z" transform="translate(-1533.874 -1151.57)" fill="#002b34"/>
        </g>
        <g id="Group_4761" data-name="Group 4761">
          <g id="Group_4738" data-name="Group 4738" transform="translate(21.525 50.708)">
            <g id="Group_4737" data-name="Group 4737">
              <path id="Path_14170" data-name="Path 14170" d="M1487.416,1227.185l-.984-.086c.013-.151,1.254-15.413-3.875-37.77-4.733-20.628-16.012-51.688-42.869-82.514l.743-.648c27.005,31,38.342,62.235,43.1,82.984C1488.685,1211.647,1487.429,1227.03,1487.416,1227.185Z" transform="translate(-1439.689 -1106.168)" fill="#002b34"/>
            </g>
          </g>
          <g id="Group_4740" data-name="Group 4740" transform="translate(47.883 21.609)">
            <g id="Group_4739" data-name="Group 4739">
              <path id="Path_14171" data-name="Path 14171" d="M1500.336,1108.15l-.831-.532c19.325-30.175,7.68-66.812,7.56-67.179l.938-.307C1508.126,1040.5,1519.918,1077.573,1500.336,1108.15Z" transform="translate(-1499.505 -1040.132)" fill="#002b34"/>
            </g>
          </g>
          <g id="Group_4742" data-name="Group 4742" transform="translate(16.177 67.724)">
            <g id="Group_4741" data-name="Group 4741">
              <path id="Path_14172" data-name="Path 14172" d="M1445.234,1150.678a34.944,34.944,0,0,1-17.683-5.076l.551-.818c.1.065,9.8,6.48,21.651,4.544l.159.973A29.023,29.023,0,0,1,1445.234,1150.678Z" transform="translate(-1427.551 -1144.784)" fill="#002b34"/>
            </g>
          </g>
          <g id="Group_4744" data-name="Group 4744" transform="translate(17.838 117.981)">
            <g id="Group_4743" data-name="Group 4743">
              <path id="Path_14173" data-name="Path 14173" d="M1481.075,1290.349c-20.267-2.3-36.692-12.187-48.818-29.371a14.464,14.464,0,0,0-.936-1.258.305.305,0,0,0,.1.052l.312-.936c.276.092.45.329,1.327,1.573,11.958,16.944,28.148,26.687,48.123,28.959Z" transform="translate(-1431.322 -1258.837)" fill="#002b34"/>
            </g>
          </g>
          <g id="Group_4746" data-name="Group 4746" transform="translate(32.773 106.075)">
            <g id="Group_4745" data-name="Group 4745">
              <path id="Path_14174" data-name="Path 14174" d="M1471.373,1264.612l-.953-.258c3.5-12.926-5.118-31.934-5.205-32.125l.9-.412a81.956,81.956,0,0,1,3.991,11.336C1471.721,1249.105,1473.259,1257.658,1471.373,1264.612Z" transform="translate(-1465.214 -1231.817)" fill="#002b34"/>
            </g>
          </g>
          <g id="Group_4748" data-name="Group 4748" transform="translate(4.285 35.876)">
            <g id="Group_4747" data-name="Group 4747">
              <path id="Path_14175" data-name="Path 14175" d="M1417.148,1082.486c5.221,4.71,5.664,7.34,4.3,8.857s-4.031,1.347-9.251-3.362c-9.51-8.578-11.628-15.471-11.628-15.471S1407.5,1073.783,1417.148,1082.486Z" transform="translate(-1400.564 -1072.509)" fill="#002b34"/>
            </g>
          </g>
          <g id="Group_4750" data-name="Group 4750" transform="translate(0 60.787)">
            <g id="Group_4749" data-name="Group 4749">
              <path id="Path_14176" data-name="Path 14176" d="M1409.66,1133.605c6.4,2.916,7.613,5.291,6.765,7.15s-3.437,2.5-9.834-.417c-11.653-5.312-15.751-11.245-15.751-11.245S1397.837,1128.216,1409.66,1133.605Z" transform="translate(-1390.84 -1129.041)" fill="#002b34"/>
            </g>
          </g>
          <g id="Group_4752" data-name="Group 4752" transform="translate(25.825 92.447)">
            <g id="Group_4751" data-name="Group 4751">
              <path id="Path_14177" data-name="Path 14177" d="M1459.337,1211.717c2.387,4.634,1.626,6.771-.19,7.708s-4,.316-6.388-4.318c-4.35-8.442-3.164-14.217-3.164-14.217S1454.922,1203.155,1459.337,1211.717Z" transform="translate(-1449.448 -1200.89)" fill="#002b34"/>
            </g>
          </g>
          <g id="Group_4754" data-name="Group 4754" transform="translate(35.874 45.029)">
            <g id="Group_4753" data-name="Group 4753">
              <path id="Path_14178" data-name="Path 14178" d="M1480.328,1106.151c1.188,5.076-.071,6.964-2.06,7.43s-3.956-.666-5.145-5.742c-2.166-9.246.39-14.559.39-14.559S1478.13,1096.77,1480.328,1106.151Z" transform="translate(-1472.253 -1093.28)" fill="#002b34"/>
            </g>
          </g>
          <g id="Group_4756" data-name="Group 4756" transform="translate(44.562 119.375)">
            <g id="Group_4755" data-name="Group 4755">
              <path id="Path_14179" data-name="Path 14179" d="M1499.389,1276.268c-.286,5.205-2.025,6.663-4.065,6.551s-3.609-1.751-3.324-6.956c.521-9.483,4.466-13.863,4.466-13.863S1499.917,1266.645,1499.389,1276.268Z" transform="translate(-1491.967 -1262)" fill="#002b34"/>
            </g>
          </g>
          <g id="Group_4758" data-name="Group 4758" transform="translate(11.398 110.749)">
            <g id="Group_4757" data-name="Group 4757">
              <path id="Path_14180" data-name="Path 14180" d="M1428.539,1250.913c3.325,4.015,3.038,6.266,1.465,7.57s-3.839,1.165-7.164-2.851c-6.057-7.314-6.134-13.209-6.134-13.209S1422.392,1243.493,1428.539,1250.913Z" transform="translate(-1416.706 -1242.423)" fill="#002b34"/>
            </g>
          </g>
          <g id="Group_4760" data-name="Group 4760" transform="translate(49.683)">
            <g id="Group_4759" data-name="Group 4759">
              <path id="Path_14181" data-name="Path 14181" d="M1512.368,1008.7c1.638,6.837.515,9.257-1.472,9.733s-4.085-1.171-5.724-8.008c-2.985-12.454-.829-19.336-.829-19.336S1509.341,996.071,1512.368,1008.7Z" transform="translate(-1503.59 -991.093)" fill="#002b34"/>
            </g>
          </g>
        </g>
      </g>
      <g id="Group_4763" data-name="Group 4763" transform="translate(15.071 84.6)">
        <path id="Path_14182" data-name="Path 14182" d="M1475.865,1271.524s-25.7-95.926-51.469-87.974,31.465,60.463,38.062,88.625Z" transform="translate(-1417.769 -1183.082)" fill="#015700"/>
      </g>
      <g id="Group_4767" data-name="Group 4767" transform="translate(0 102.063)">
        <g id="Group_4764" data-name="Group 4764">
          <path id="Path_14183" data-name="Path 14183" d="M1452.962,1289.36s-39.326-76.973-63.869-65.477,40,45.718,50.6,68.489Z" transform="translate(-1383.567 -1222.712)" fill="#94c358"/>
        </g>
        <g id="Group_4766" data-name="Group 4766" transform="translate(12.541 10.587)">
          <g id="Group_4765" data-name="Group 4765">
            <path id="Path_14184" data-name="Path 14184" d="M1461.293,1304.632c-13.445-30.311-48.909-56.752-49.266-57.016l.647-.877c.359.266,36.052,26.875,49.615,57.451Z" transform="translate(-1412.027 -1246.739)" fill="#fff"/>
          </g>
        </g>
      </g>
      <g id="Group_4769" data-name="Group 4769" transform="translate(52.86 79.272)">
        <g id="Group_4768" data-name="Group 4768">
          <path id="Path_14185" data-name="Path 14185" d="M1601.418,1194.2c-.224.545-.453,1.09-.7,1.635a50.311,50.311,0,0,1-6.12,10.17c-2.655,3.418-3.205,7.135-3.009,10.879,0,.1.011.207.017.316.348,5.57,2.256,11.184,1.21,15.921-.077.332-.163.665-.273.992-.839,2.605-2.731,4.911-6.491,6.753-12.6,6.164-14.613,5.663-15.735,11.07-.071.322-.131.665-.2,1.03-.174,1.03-.343,2.246-.55,3.712a2.918,2.918,0,0,1-1.379,2.714c-4.376,3.276-19.534,5.81-38.409,6.328-.349.011-.692.016-1.041.027q-3.009.074-6.138.071c-6.2,0-12.121-.213-17.534-.611a21.111,21.111,0,0,1-.114-15.522,24.571,24.571,0,0,1,4.469-7.179c11.283-12.885,20.352-10.623,18.232-33.422-.022-.256-.049-.518-.076-.785-.022-.213-.044-.431-.065-.649-2.627-24.342,30.255-13.817,38.474-22.036s13.817-17.431,28.61-13.818C1605.005,1174.343,1605.332,1184.359,1601.418,1194.2Z" transform="translate(-1503.527 -1170.99)" fill="#ffbb01"/>
        </g>
      </g>
      <g id="Group_4784" data-name="Group 4784" transform="translate(76.553 82.161)">
        <g id="Group_4771" data-name="Group 4771" transform="translate(1.525)">
          <g id="Group_4770" data-name="Group 4770">
            <path id="Path_14186" data-name="Path 14186" d="M1631.095,1178.288a333.126,333.126,0,0,0-31.171,31.073c-.278.316-.551.632-.823.948a242.65,242.65,0,0,0-26.838,37.145c-.169.294-.332.583-.5.866a128.422,128.422,0,0,0-9.969,21.066c-.349.011-.692.016-1.041.027,1.183-3.554,7.544-20.908,25.759-45.108.2-.272.408-.545.616-.817a314.418,314.418,0,0,1,43.315-45.942Z" transform="translate(-1560.757 -1177.546)" fill="#e3ffd2"/>
          </g>
        </g>
        <g id="Group_4773" data-name="Group 4773" transform="translate(0 34.116)">
          <g id="Group_4772" data-name="Group 4772">
            <path id="Path_14187" data-name="Path 14187" d="M1576.977,1260.79c-13.483-.485-19.435-4.847-19.682-5.032l.592-.79c.058.044,5.987,4.363,19.125,4.835Z" transform="translate(-1557.295 -1254.968)" fill="#e3ffd2"/>
          </g>
        </g>
        <g id="Group_4775" data-name="Group 4775" transform="translate(12.284 17.919)">
          <g id="Group_4774" data-name="Group 4774">
            <path id="Path_14188" data-name="Path 14188" d="M1600.735,1247.276c-5.347-2-9.735-7.658-12.69-16.364a65.917,65.917,0,0,1-2.873-12.6l.981-.1c.025.234,2.632,23.542,14.928,28.141Z" transform="translate(-1585.172 -1218.212)" fill="#e3ffd2"/>
          </g>
        </g>
        <g id="Group_4777" data-name="Group 4777" transform="translate(39.579 20.174)">
          <g id="Group_4776" data-name="Group 4776">
            <path id="Path_14189" data-name="Path 14189" d="M1649.624,1235.98c-1.556,0-2.468-.083-2.51-.088l.1-.981c.192.019,19.386,1.763,34.391-11.583l.655.736C1670.172,1234.821,1655.423,1235.98,1649.624,1235.98Z" transform="translate(-1647.115 -1223.328)" fill="#e3ffd2"/>
          </g>
        </g>
        <g id="Group_4779" data-name="Group 4779" transform="translate(47.198 32.064)">
          <g id="Group_4778" data-name="Group 4778">
            <path id="Path_14190" data-name="Path 14190" d="M1681.5,1262.244a23.276,23.276,0,0,1-13.467-6.466,17.245,17.245,0,0,1-3.628-5.094l.914-.372c.037.092,3.885,9.164,16.322,10.956Z" transform="translate(-1664.404 -1250.312)" fill="#e3ffd2"/>
          </g>
        </g>
        <g id="Group_4781" data-name="Group 4781" transform="translate(12.037 69.625)">
          <g id="Group_4780" data-name="Group 4780">
            <path id="Path_14191" data-name="Path 14191" d="M1610.08,1345.43c-14.693,0-25.35-9.029-25.469-9.132l.644-.747c.131.113,13.33,11.278,30.466,8.428l.162.974A35.257,35.257,0,0,1,1610.08,1345.43Z" transform="translate(-1584.611 -1335.551)" fill="#e3ffd2"/>
          </g>
        </g>
        <g id="Group_4783" data-name="Group 4783" transform="translate(22.084 59.241)">
          <g id="Group_4782" data-name="Group 4782">
            <path id="Path_14192" data-name="Path 14192" d="M1608.249,1328.931l-.836-.522c2.931-4.694,9.765-11,25.678-14.383a97.318,97.318,0,0,1,17.889-2.039v.987C1650.648,1312.975,1618.088,1313.173,1608.249,1328.931Z" transform="translate(-1607.412 -1311.986)" fill="#e3ffd2"/>
          </g>
        </g>
      </g>
      <g id="Group_4793" data-name="Group 4793" transform="translate(37.365 181.145)">
        <g id="Group_4786" data-name="Group 4786" transform="translate(11.659 2.935)">
          <g id="Group_4785" data-name="Group 4785">
            <path id="Path_14193" data-name="Path 14193" d="M1496.932,1430.555c4.464-.377,9.644-.966,15.169-1.88q1.117-.18,2.248-.382c15.546-2.786,33.359-8.205,45.581-18.755.06-.046.115-.092.17-.142l-.059-.046-.662-.51c-17.689,15.39-47.457,19.817-64.553,21.071h0Z" transform="translate(-1494.822 -1408.84)" fill="#015700"/>
          </g>
        </g>
        <g id="Group_4788" data-name="Group 4788" transform="translate(28.938 21.997)">
          <g id="Group_4787" data-name="Group 4787">
            <path id="Path_14194" data-name="Path 14194" d="M1558.043,1455.722h0c-.074,0-.148,0-.225,0a144.931,144.931,0,0,1-23.779-2.836v-.009h.005l.216-.772c.685.138,1.361.267,2.027.391a138.188,138.188,0,0,0,24.161,2.473h0Z" transform="translate(-1534.034 -1452.099)" fill="#015700"/>
          </g>
        </g>
        <g id="Group_4790" data-name="Group 4790" transform="translate(0 0)">
          <g id="Group_4789" data-name="Group 4789">
            <path id="Path_14195" data-name="Path 14195" d="M1514.85,1402.18c-8.43,6.183-22.652,13.62-45.71,18.424-.267-.22-.524-.441-.777-.666q3.282-.676,6.321-1.416h.009c1.016-.248,2.018-.5,2.993-.758h.009c17.141-4.5,28.445-10.434,35.68-15.583h1.475Z" transform="translate(-1468.363 -1402.18)" fill="#015700"/>
          </g>
        </g>
        <g id="Group_4792" data-name="Group 4792" transform="translate(6.255)">
          <g id="Group_4791" data-name="Group 4791">
            <path id="Path_14196" data-name="Path 14196" d="M1498.774,1402.179a37.642,37.642,0,0,1-16.149,16.341h0l-.064.037.543.671q1.317-.71,2.523-1.467h.005a38.1,38.1,0,0,0,14.208-15.583h-1.062Z" transform="translate(-1482.557 -1402.179)" fill="#015700"/>
          </g>
        </g>
      </g>
    </g>
    <g id="Group_4838" data-name="Group 4838" transform="translate(670.372 731.429)">
      <g id="Group_4803" data-name="Group 4803" transform="translate(0 42.115)">
        <g id="Group_4796" data-name="Group 4796" transform="translate(0 14.413)">
          <g id="Group_4795" data-name="Group 4795">
            <path id="Path_14197" data-name="Path 14197" d="M1081.849,1388.223l-.777-.147a1.115,1.115,0,0,1-.889-1.3l14.464-76.532,11.84-1.369-22.649,78.043A1.709,1.709,0,0,1,1081.849,1388.223Z" transform="translate(-1080.163 -1308.871)" fill="#002b34"/>
          </g>
        </g>
        <g id="Group_4798" data-name="Group 4798" transform="translate(101.775 15.148)">
          <g id="Group_4797" data-name="Group 4797">
            <path id="Path_14198" data-name="Path 14198" d="M1340.115,1388.406l.768-.19a1.115,1.115,0,0,0,.816-1.35l-18.673-75.615-11.9-.713,26.929,76.672A1.713,1.713,0,0,0,1340.115,1388.406Z" transform="translate(-1311.128 -1310.538)" fill="#002b34"/>
          </g>
        </g>
        <g id="Group_4801" data-name="Group 4801" transform="translate(1.642 4.457)">
          <g id="Group_4799" data-name="Group 4799">
            <ellipse id="Ellipse_1854" data-name="Ellipse 1854" cx="64.401" cy="12.432" rx="64.401" ry="12.432" fill="#ff8321"/>
          </g>
          <g id="Group_4800" data-name="Group 4800" transform="translate(0 7.501)">
            <rect id="Rectangle_3968" data-name="Rectangle 3968" width="128.802" height="4.933" fill="#ff8321"/>
          </g>
        </g>
        <g id="Group_4802" data-name="Group 4802" transform="translate(1.642)">
          <ellipse id="Ellipse_1855" data-name="Ellipse 1855" cx="64.401" cy="11.236" rx="64.401" ry="11.236" fill="#ffbb01"/>
        </g>
      </g>
    </g>
    <g id="Group_4840" data-name="Group 4840" transform="translate(641.762 538.35)">
      <g id="Group_4839" data-name="Group 4839" transform="translate(0 0)">
        <path id="Path_14224" data-name="Path 14224" d="M1015.543,743.677a.353.353,0,0,1-.124-.657,3.819,3.819,0,0,1,4.659.432.356.356,0,0,1,.051.5.387.387,0,0,1-.5.051,6.036,6.036,0,0,0-3.869-.363A.355.355,0,0,1,1015.543,743.677Z" transform="translate(-1015.238 -742.419)" fill="#060633"/>
      </g>
    </g>
    <g id="Group_4841" data-name="Group 4841" transform="translate(642.866 541.599)">
      <ellipse id="Ellipse_1859" data-name="Ellipse 1859" cx="1.106" cy="1.524" rx="1.106" ry="1.524" transform="matrix(0.987, -0.158, 0.158, 0.987, 0, 0.349)" fill="#060633"/>
    </g>
    <g id="Group_4843" data-name="Group 4843" transform="translate(629.38 542.035)">
      <g id="Group_4842" data-name="Group 4842">
        <path id="Path_14225" data-name="Path 14225" d="M987.5,752.78a.257.257,0,0,1-.246-.082.425.425,0,0,1-.072-.491,2.474,2.474,0,0,1,3.445-1.111.42.42,0,0,1,.21.446.261.261,0,0,1-.333.208,3.7,3.7,0,0,0-2.863.919A.235.235,0,0,1,987.5,752.78Z" transform="translate(-987.138 -750.782)" fill="#060633"/>
      </g>
    </g>
    <g id="Group_4844" data-name="Group 4844" transform="translate(631.475 544.688)">
      <ellipse id="Ellipse_1860" data-name="Ellipse 1860" cx="1.106" cy="1.524" rx="1.106" ry="1.524" transform="translate(0 1.155) rotate(-31.481)" fill="#060633"/>
    </g>
    <g id="Group_4847" data-name="Group 4847" transform="translate(641.937 549.694)">
      <g id="Group_4845" data-name="Group 4845" transform="translate(0 0.831)">
        <path id="Path_14226" data-name="Path 14226" d="M1017.954,774.363a9.765,9.765,0,0,1-2.134-.218.246.246,0,1,1,.121-.477c.243.062,5.984,1.449,8.81-3.495a.246.246,0,1,1,.428.245A7.926,7.926,0,0,1,1017.954,774.363Z" transform="translate(-1015.634 -770.048)" fill="#020202"/>
      </g>
      <g id="Group_4846" data-name="Group 4846" transform="translate(8.234 0)">
        <path id="Path_14227" data-name="Path 14227" d="M1036.135,770.226a.245.245,0,0,1-.233-.168,2.777,2.777,0,0,0-1.4-1.4l-.071-.042a.246.246,0,0,1,.271-.411l.044.025a3.293,3.293,0,0,1,1.625,1.673.246.246,0,0,1-.156.312A.241.241,0,0,1,1036.135,770.226Z" transform="translate(-1034.32 -768.163)" fill="#020202"/>
      </g>
    </g>
    <g id="Group_4857" data-name="Group 4857" transform="translate(389.791 710.971)">
      <g id="Group_4848" data-name="Group 4848" transform="translate(0)">
        <path id="Path_14228" data-name="Path 14228" d="M491.614,1134.909l-22.414-.749-25.4.66-.063,1.913,24.57-1.094a4.7,4.7,0,0,1,4.308,5.048h0a4.7,4.7,0,0,1-4.635,4.748l-24.507-.819-.047,1.413,47.767,1.6a6.1,6.1,0,0,0,6.017-6.165h0A6.107,6.107,0,0,0,491.614,1134.909Z" transform="translate(-443.422 -1134.16)" fill="#ff8321"/>
      </g>
      <g id="Group_4849" data-name="Group 4849" transform="translate(0 0)">
        <path id="Path_14229" data-name="Path 14229" d="M474.791,1140.713h0a6.1,6.1,0,0,0-5.592-6.552l-25.4.66-.063,1.913,24.57-1.094a4.7,4.7,0,0,1,4.308,5.048h0a4.7,4.7,0,0,1-4.635,4.749l-24.507-.819-.047,1.413,25.352.847A6.1,6.1,0,0,0,474.791,1140.713Z" transform="translate(-443.422 -1134.161)" fill="#ff8321"/>
      </g>
      <g id="Group_4850" data-name="Group 4850" transform="translate(0.047 1.485)">
        <path id="Path_14230" data-name="Path 14230" d="M468.363,1137.53l-24.57,1.089h0c2.217.355,2.886,2.606,3.193,3.808.624,2.437-1.221,3.841-3.456,4.047v.033l24.507.819a4.7,4.7,0,0,0,4.635-4.748h0A4.7,4.7,0,0,0,468.363,1137.53Z" transform="translate(-443.528 -1137.53)" fill="#e6edff"/>
      </g>
      <g id="Group_4851" data-name="Group 4851" transform="translate(3.597 7.476)">
        <rect id="Rectangle_3971" data-name="Rectangle 3971" width="19.791" height="0.134" transform="translate(0.004 0) rotate(1.914)" fill="#002b34"/>
      </g>
      <g id="Group_4853" data-name="Group 4853" transform="translate(28.635 0.867)" opacity="0.4">
        <g id="Group_4852" data-name="Group 4852">
          <path id="Path_14231" data-name="Path 14231" d="M508.761,1147.379a.268.268,0,0,1-.149-.49c.02-.013,1.951-1.353,2.261-5.1a5.251,5.251,0,0,0-2.326-5.161.267.267,0,0,1,.25-.473,5.706,5.706,0,0,1,2.609,5.678c-.334,4.021-2.409,5.439-2.5,5.5A.257.257,0,0,1,508.761,1147.379Z" transform="translate(-508.405 -1136.129)" fill="#015700"/>
        </g>
      </g>
      <g id="Group_4854" data-name="Group 4854" transform="translate(3.516 6.027)">
        <rect id="Rectangle_3972" data-name="Rectangle 3972" width="0.134" height="15.198" transform="translate(15.195 0) rotate(88.963)" fill="#002b34"/>
      </g>
      <g id="Group_4856" data-name="Group 4856" transform="translate(31.839 2.647)" opacity="0.4">
        <g id="Group_4855" data-name="Group 4855">
          <path id="Path_14232" data-name="Path 14232" d="M520.735,1148.316h-.009l-4.791-.16a.268.268,0,0,1-.222-.4,14.364,14.364,0,0,0,1.316-3.371,5.5,5.5,0,0,0-.813-3.8.266.266,0,0,1-.01-.278.271.271,0,0,1,.242-.137l4.545.152a.268.268,0,0,1,.21.114,6.5,6.5,0,0,1-.265,7.789A.273.273,0,0,1,520.735,1148.316Zm-4.352-.683,4.228.141a5.836,5.836,0,0,0,.23-6.928l-3.929-.131a5.617,5.617,0,0,1,.637,3.8A15.141,15.141,0,0,1,516.383,1147.633Z" transform="translate(-515.677 -1140.167)" fill="#015700"/>
        </g>
      </g>
    </g>
    <g id="Group_4865" data-name="Group 4865" transform="translate(384.545 722.969)">
      <g id="Group_4858" data-name="Group 4858" transform="translate(0)">
        <path id="Path_14233" data-name="Path 14233" d="M437.325,1161.39h22.427l25.367,1.508v1.914L460.6,1162.9a4.7,4.7,0,0,0-4.474,4.9h0a4.7,4.7,0,0,0,4.474,4.9h24.521v1.414H437.325a6.1,6.1,0,0,1-5.808-6.362h0A6.1,6.1,0,0,1,437.325,1161.39Z" transform="translate(-431.517 -1161.39)" fill="#015700"/>
      </g>
      <g id="Group_4859" data-name="Group 4859" transform="translate(22.427 0.001)">
        <path id="Path_14234" data-name="Path 14234" d="M482.413,1167.755h0a6.1,6.1,0,0,1,5.808-6.362l25.367,1.507v1.914l-24.521-1.914a4.7,4.7,0,0,0-4.474,4.9h0a4.7,4.7,0,0,0,4.474,4.9h24.521v1.414H488.221A6.1,6.1,0,0,1,482.413,1167.755Z" transform="translate(-482.413 -1161.393)" fill="#015700"/>
      </g>
      <g id="Group_4860" data-name="Group 4860" transform="translate(24.607 1.511)">
        <path id="Path_14235" data-name="Path 14235" d="M491.833,1164.82l24.521,1.909h0c-2.228.28-2.972,2.509-3.32,3.7-.7,2.415,1.092,3.879,3.32,4.16v.033H491.833a4.7,4.7,0,0,1-4.474-4.9h0A4.7,4.7,0,0,1,491.833,1164.82Z" transform="translate(-487.359 -1164.82)" fill="#e6edff"/>
      </g>
      <g id="Group_4861" data-name="Group 4861" transform="translate(30.356 8.236)">
        <rect id="Rectangle_3973" data-name="Rectangle 3973" width="19.792" height="0.134" fill="#002b34"/>
      </g>
      <g id="Group_4862" data-name="Group 4862" transform="translate(22.15 0.789)">
        <path id="Path_14236" data-name="Path 14236" d="M484.106,1174.347c-.086-.061-2.114-1.548-2.313-5.579a5.705,5.705,0,0,1,2.8-5.587l.235.48a5.186,5.186,0,0,0-2.5,5.08c.186,3.774,2.07,5.155,2.089,5.169Z" transform="translate(-481.783 -1163.181)" fill="#002b34"/>
      </g>
      <g id="Group_4863" data-name="Group 4863" transform="translate(35.1 6.266)">
        <rect id="Rectangle_3974" data-name="Rectangle 3974" width="15.197" height="0.134" transform="translate(0.007 0) rotate(2.866)" fill="#002b34"/>
      </g>
      <g id="Group_4864" data-name="Group 4864" transform="translate(15.486 2.679)">
        <path id="Path_14237" data-name="Path 14237" d="M467.944,1167.47h4.548a5.75,5.75,0,0,0-.984,3.983,14.541,14.541,0,0,0,1.229,3.484h-4.793A6.185,6.185,0,0,1,467.944,1167.47Z" transform="translate(-466.661 -1167.47)" fill="#002b34"/>
      </g>
    </g>
    <g id="Group_4866" data-name="Group 4866" transform="translate(658.067 573.012)">
      <path id="Path_14238" data-name="Path 14238" d="M1052.27,839.542l-.031-1.09c19.422-.553,26.426-17.2,26.494-17.372l1.01.411a31.078,31.078,0,0,1-27.472,18.051Z" transform="translate(-1052.239 -821.08)" fill="#002b34"/>
    </g>
    <g id="Group_4867" data-name="Group 4867" transform="translate(666.776 582.261)">
      <path id="Path_14239" data-name="Path 14239" d="M1072.58,860.6l-.576-.926c.1-.063,10.01-6.354,11.29-17.607l1.083.123C1083.036,853.983,1072.685,860.539,1072.58,860.6Z" transform="translate(-1072.004 -842.071)" fill="#002b34"/>
    </g>
    <g id="Group_4868" data-name="Group 4868" transform="translate(620.05 603.763)">
      <rect id="Rectangle_3975" data-name="Rectangle 3975" width="1.09" height="12.666" transform="translate(3.99 0) rotate(18.361)" fill="#cc6e58"/>
    </g>
    <g id="Group_4869" data-name="Group 4869" transform="translate(710.221 754.76)">
      <path id="Path_14240" data-name="Path 14240" d="M1170.916,1237.459a.308.308,0,0,1-.12-.024.318.318,0,0,1-.175-.413c.047-.115,1.195-2.828,5.719-3.484a.318.318,0,1,1,.091.63c-4.141.6-5.178,2.993-5.22,3.094A.314.314,0,0,1,1170.916,1237.459Z" transform="translate(-1170.598 -1233.536)" fill="#ccdddb"/>
    </g>
    <g id="Group_4870" data-name="Group 4870" transform="translate(739.397 747.226)">
      <path id="Path_14241" data-name="Path 14241" d="M1237.126,1223.916h-.026a.318.318,0,0,1-.291-.343l.557-6.842a.318.318,0,1,1,.634.052l-.557,6.842A.316.316,0,0,1,1237.126,1223.916Z" transform="translate(-1236.808 -1216.437)" fill="#ccdddb"/>
    </g>
    <g id="Group_4871" data-name="Group 4871" transform="translate(947.982 622.464)">
      <path id="Path_14242" data-name="Path 14242" d="M1710.8,960.077a.627.627,0,0,1-.193-.03.636.636,0,0,1-.414-.8c4.954-15.585,19.167-25.725,19.31-25.826a.636.636,0,0,1,.732,1.041c-.14.1-14.008,10-18.829,25.17A.631.631,0,0,1,1710.8,960.077Z" transform="translate(-1710.165 -933.306)" fill="#54a233"/>
    </g>
    <g id="Group_4872" data-name="Group 4872" transform="translate(937.133 663.864)">
      <path id="Path_14243" data-name="Path 14243" d="M1686.182,1043.175a.637.637,0,0,1-.608-.824l4.511-14.644a.637.637,0,0,1,1.217.375l-4.511,14.644A.636.636,0,0,1,1686.182,1043.175Z" transform="translate(-1685.545 -1027.258)" fill="#54a233"/>
    </g>
    <g id="Group_4873" data-name="Group 4873" transform="translate(621.743 535.514)">
      <path id="Path_14244" data-name="Path 14244" d="M980.249,758.358a5.488,5.488,0,0,1-.724-.049c-2.612-.351-5.326-2.54-7.261-5.857-3.148-5.4-3.288-12.165-.313-15.085a4.722,4.722,0,0,1,4.073-1.334c2.611.351,5.326,2.54,7.26,5.857,3.149,5.4,3.289,12.165.313,15.085A4.676,4.676,0,0,1,980.249,758.358Zm-4.94-21.642a3.972,3.972,0,0,0-2.845,1.172c-2.752,2.7-2.558,9.068.433,14.194,1.822,3.124,4.336,5.18,6.726,5.5a4.014,4.014,0,0,0,3.463-1.13c2.752-2.7,2.558-9.068-.432-14.194h0c-1.822-3.124-4.336-5.18-6.726-5.5A4.553,4.553,0,0,0,975.309,736.716Z" transform="translate(-969.808 -735.983)" fill="#fff"/>
    </g>
    <g id="Group_4874" data-name="Group 4874" transform="translate(639.037 527.488)" opacity="0.3">
      <path id="Path_14245" data-name="Path 14245" d="M1022.964,723.774c2.549,5.368,1.844,11.9-1.574,14.586s-8.255.516-10.8-4.851-1.845-11.9,1.573-14.586S1020.412,718.406,1022.964,723.774Z" transform="translate(-1009.054 -717.769)" fill="#fff"/>
    </g>
    <g id="Group_4875" data-name="Group 4875" transform="translate(622.953 535.799)" opacity="0.3">
      <path id="Path_14246" data-name="Path 14246" d="M985.075,742.685c2.558,5.394,2.212,11.936-.772,14.615s-7.478.479-10.036-4.914-2.212-11.936.773-14.615S982.518,737.292,985.075,742.685Z" transform="translate(-972.554 -736.63)" fill="#fff"/>
    </g>
    <g id="Group_4876" data-name="Group 4876" transform="translate(637.599 526.092)">
      <path id="Path_14247" data-name="Path 14247" d="M1015.736,738.032a6.521,6.521,0,0,1-1.5-.18c-2.732-.647-5.217-2.929-6.818-6.262-2.753-5.73-1.92-12.768,1.856-15.688a6,6,0,0,1,5.213-1.12c2.732.647,5.218,2.929,6.818,6.262h0c2.753,5.73,1.92,12.768-1.856,15.688A5.976,5.976,0,0,1,1015.736,738.032Zm-2.75-22.7a5.27,5.27,0,0,0-3.27,1.145c-3.518,2.72-4.255,9.356-1.644,14.792,1.483,3.087,3.848,5.279,6.327,5.866a5.3,5.3,0,0,0,4.6-.986c3.517-2.72,4.255-9.356,1.644-14.792h0c-1.483-3.086-3.848-5.279-6.327-5.866A5.7,5.7,0,0,0,1012.986,715.336Z" transform="translate(-1005.791 -714.602)" fill="#fff"/>
    </g>
    <g id="Group_4877" data-name="Group 4877" transform="translate(634.356 540.615)">
      <path id="Path_14248" data-name="Path 14248" d="M999.115,751.1a.682.682,0,0,1-.541-1.1,7.443,7.443,0,0,1,5.642-2.438.684.684,0,0,1,.034,1.367,6.1,6.1,0,0,0-4.6,1.91A.686.686,0,0,1,999.115,751.1Z" transform="translate(-998.431 -747.559)" fill="#fff"/>
    </g>
    <g id="Group_4878" data-name="Group 4878" transform="translate(781.155 729.204)">
      <path id="Path_14249" data-name="Path 14249" d="M1332.457,1209.759l-.055,0a.885.885,0,0,1-.828-.938,40.558,40.558,0,0,1,3.8-13.476,37.339,37.339,0,0,1,22.025-19.757.884.884,0,1,1,.577,1.671c-22.9,7.91-24.624,31.435-24.638,31.672A.884.884,0,0,1,1332.457,1209.759Z" transform="translate(-1331.572 -1175.537)" fill="#94c358"/>
    </g>
    <g id="Group_4879" data-name="Group 4879" transform="translate(971.367 623.164)">
      <path id="Path_14250" data-name="Path 14250" d="M1764.118,950.064a.884.884,0,0,1-.708-1.412c.47-.632,11.645-15.439,22.193-13.6,10.849,1.894,9.471,12.545,9.456,12.653a.884.884,0,0,1-1.751-.247h0c.05-.369,1.138-9.067-8.009-10.664-9.47-1.655-20.363,12.769-20.471,12.915A.889.889,0,0,1,1764.118,950.064Z" transform="translate(-1763.235 -934.893)" fill="#94c358"/>
    </g>
  </g>
</svg>
