<svg xmlns="http://www.w3.org/2000/svg" width="26.845" height="13.914" viewBox="0 0 26.845 13.914">
  <g id="User_Profile" transform="translate(0 -3)">
    <path id="Path_14640" data-name="Path 14640" d="M7.238,124.886H1.109a1.109,1.109,0,0,1,0-2.218H7.238a1.109,1.109,0,0,1,0,2.218Zm0,0" transform="translate(0 -113.82)" fill="#fff"/>
    <path id="Path_14641" data-name="Path 14641" d="M25.736,2.218H1.119A1.109,1.109,0,0,1,1.119,0H25.736a1.109,1.109,0,0,1,0,2.218Zm0,0" transform="translate(0 3)" fill="#fff"/>
    <path id="Path_14642" data-name="Path 14642" d="M16.37,247.55H1.109a1.109,1.109,0,1,1,0-2.218H16.37a1.109,1.109,0,0,1,0,2.218Zm0,0" transform="translate(0 -230.636)" fill="#fff"/>
  </g>
</svg>
